<svg xmlns="http://www.w3.org/2000/svg" viewBox="0 0 523.911 233.306"><g id="Calque_2" data-name="Calque 2"><g id="Calque_1-2" data-name="Calque 1"><circle cx="87.494" cy="145.811" r="87.494" fill="#ef1f1e"/><path d="M19.724,67.881q-7.82,0-11.729-3.7T4.086,53.725A19.706,19.706,0,0,1,6.041,44.9a14.864,14.864,0,0,1,5.538-5.835,15.948,15.948,0,0,1,8.323-2.1,15.448,15.448,0,0,1,4.087.534A13.572,13.572,0,0,1,31.6,42.767,20.1,20.1,0,0,1,34.384,48.1a18.7,18.7,0,0,1,1.037,6.219q0,6.753-3.969,10.159T19.724,67.881Zm-6.1-35.006a3.981,3.981,0,0,1-3.258-1.363A5.124,5.124,0,0,1,9.24,28.136a5.1,5.1,0,0,1,1.125-3.406A4.023,4.023,0,0,1,13.623,23.4a4.046,4.046,0,0,1,3.2,1.274,5.055,5.055,0,0,1,1.125,3.465A4.886,4.886,0,0,1,16.762,31.6,4.081,4.081,0,0,1,13.623,32.875Zm5.923,26q2.724,0,3.673-1.481a6.923,6.923,0,0,0,.947-3.791,12.126,12.126,0,0,0-.592-3.85,7.4,7.4,0,0,0-1.659-2.873,3.3,3.3,0,0,0-2.428-1.1,3.569,3.569,0,0,0-2.547.947A5.808,5.808,0,0,0,15.43,49.4a14.38,14.38,0,0,0-.5,4.028,7.179,7.179,0,0,0,.977,3.91Q16.881,58.879,19.546,58.878Zm5.805-26a4.11,4.11,0,0,1-3.2-1.3,4.905,4.905,0,0,1-1.184-3.435,4.887,4.887,0,0,1,1.184-3.465,4.158,4.158,0,0,1,3.2-1.274,4.114,4.114,0,0,1,3.169,1.244,4.944,4.944,0,0,1,1.155,3.5A4.816,4.816,0,0,1,28.461,31.6,4.107,4.107,0,0,1,25.351,32.875Z" transform="translate(0 -6.93)"/><path d="M64.563,67.289v.651a14.991,14.991,0,0,1-1.925,7.612,13.85,13.85,0,0,1-5.39,5.272,16.394,16.394,0,0,1-8.086,1.925,20.165,20.165,0,0,1-5.6-.829,23.07,23.07,0,0,1-6.249-3.081l3.969-8.411A19.969,19.969,0,0,0,44.6,71.909a9.256,9.256,0,0,0,2.9.533,5.536,5.536,0,0,0,4.087-1.6,5.181,5.181,0,0,0,1.6-3.791v-29.5H64.563V58.522H72.5c.2,0,.3.08.3.237v8.234a.262.262,0,0,1-.3.3Z" transform="translate(0 -6.93)"/><path d="M71.907,67.289a.261.261,0,0,1-.3-.3V58.759c0-.157.1-.237.3-.237h7.108a18.129,18.129,0,0,1-1.51-3.228,12.3,12.3,0,0,1-.681-4.235,23.487,23.487,0,0,1,.681-5.331,15.179,15.179,0,0,1,2.517-5.449,31.97,31.97,0,0,1,6.16-2.666,21.062,21.062,0,0,1,6.22-.947,18.432,18.432,0,0,1,8.234,1.776,13.233,13.233,0,0,1,5.715,5.183,14.508,14.508,0,0,1,2.044,7.612,16.239,16.239,0,0,1-.651,4.591,16.805,16.805,0,0,1-2.133,4.471,14.485,14.485,0,0,1-6.16,5.035,22.26,22.26,0,0,1-9.6,1.955ZM87.9,52.007a15.458,15.458,0,0,0,.386,3.465,17.177,17.177,0,0,0,.977,3.05H91.04a6.365,6.365,0,0,0,2.932-.71,5.593,5.593,0,0,0,2.28-2.222,7.3,7.3,0,0,0,.888-3.761,6.059,6.059,0,0,0-1.451-4.324,4.6,4.6,0,0,0-3.465-1.54,6.481,6.481,0,0,0-1.806.266,5.152,5.152,0,0,0-1.748.919,12.674,12.674,0,0,0-.592,2.517A17.9,17.9,0,0,0,87.9,52.007Z" transform="translate(0 -6.93)"/><path d="M135.642,58.522c.2,0,.3.08.3.237v8.234a.261.261,0,0,1-.3.3h-18.3V22.272h11.195v36.25Z" transform="translate(0 -6.93)"/><path d="M165.14,67.289a25.861,25.861,0,0,1-7.849-1.037,27.529,27.529,0,0,1-5-2.043A30.04,30.04,0,0,1,146.9,66.46a20.469,20.469,0,0,1-5.982.829h-5.864a.261.261,0,0,1-.3-.3V58.759c0-.157.1-.237.3-.237H138.6a22.091,22.091,0,0,0,3.613-.266,19.727,19.727,0,0,0,2.547-.563,10.792,10.792,0,0,1-1.747-1.806,26.353,26.353,0,0,1-1.629-2.4,45.483,45.483,0,0,1-2.992-6.22,32.462,32.462,0,0,1-1.865-6.575,28.352,28.352,0,0,1,5.6-3.228,34.143,34.143,0,0,1,6.249-2.044,27.713,27.713,0,0,1,5.983-.71,48,48,0,0,1,8.5.681,28.874,28.874,0,0,1,7.256,2.339,30.294,30.294,0,0,1-1.1,8.264,25.154,25.154,0,0,1-3.08,6.93,17.247,17.247,0,0,1-4.65,4.887,10.935,10.935,0,0,0,1.718.474,16.483,16.483,0,0,0,3.2.236h5.628c.2,0,.3.08.3.237v8.234a.261.261,0,0,1-.3.3ZM153.589,53.784a17.886,17.886,0,0,0,3.939-4.354,11.8,11.8,0,0,0,1.806-5.538,15.974,15.974,0,0,0-2.043-.3q-1.275-.118-2.517-.119a17.91,17.91,0,0,0-2.873.237,19.752,19.752,0,0,0-2.518.563,4.526,4.526,0,0,0-1.421.622,29.322,29.322,0,0,0,1.421,3.495,17.8,17.8,0,0,0,1.9,3.109A10.957,10.957,0,0,0,153.589,53.784Zm0-24.049a4.391,4.391,0,0,1-3.406-1.392A5.177,5.177,0,0,1,148.91,24.7a5.3,5.3,0,0,1,1.214-3.7,5.1,5.1,0,0,1,6.841-.029,5.2,5.2,0,0,1,1.244,3.731,5.135,5.135,0,0,1-1.274,3.7A4.414,4.414,0,0,1,153.589,29.735Z" transform="translate(0 -6.93)"/><path d="M171.24,67.289a.261.261,0,0,1-.3-.3V58.759c0-.157.1-.237.3-.237h7.108a18.128,18.128,0,0,1-1.511-3.228,12.3,12.3,0,0,1-.681-4.235,23.487,23.487,0,0,1,.681-5.331,15.181,15.181,0,0,1,2.518-5.449,31.944,31.944,0,0,1,6.16-2.666,21.062,21.062,0,0,1,6.22-.947,18.425,18.425,0,0,1,8.233,1.776,13.23,13.23,0,0,1,5.716,5.183,14.516,14.516,0,0,1,2.043,7.612,16.239,16.239,0,0,1-.651,4.591,16.8,16.8,0,0,1-2.132,4.471,14.491,14.491,0,0,1-6.16,5.035,22.264,22.264,0,0,1-9.6,1.955Zm15.993-15.282a15.515,15.515,0,0,0,.385,3.465,17.177,17.177,0,0,0,.977,3.05h1.777a6.359,6.359,0,0,0,2.932-.71,5.589,5.589,0,0,0,2.281-2.222,7.313,7.313,0,0,0,.888-3.761,6.063,6.063,0,0,0-1.451-4.324,4.6,4.6,0,0,0-3.465-1.54,6.488,6.488,0,0,0-1.807.266A5.157,5.157,0,0,0,188,47.15a12.605,12.605,0,0,0-.592,2.517A17.9,17.9,0,0,0,187.233,52.007Z" transform="translate(0 -6.93)"/><path d="M256.239,67.289v.651a14.991,14.991,0,0,1-1.925,7.612,13.85,13.85,0,0,1-5.39,5.272,16.4,16.4,0,0,1-8.086,1.925,20.159,20.159,0,0,1-5.6-.829,23.07,23.07,0,0,1-6.249-3.081l3.968-8.411a19.94,19.94,0,0,0,3.317,1.481,9.256,9.256,0,0,0,2.9.533,5.536,5.536,0,0,0,4.087-1.6,5.181,5.181,0,0,0,1.6-3.791v-29.5h11.373V58.522h7.937c.2,0,.3.08.3.237v8.234a.262.262,0,0,1-.3.3Z" transform="translate(0 -6.93)"/><path d="M263.583,67.289a.261.261,0,0,1-.3-.3V58.759c0-.157.1-.237.3-.237h7.108V37.554h11.2V58.522h7.7c.2,0,.3.08.3.237v8.234a.262.262,0,0,1-.3.3ZM276.14,82.927a4.11,4.11,0,0,1-3.2-1.3,5,5,0,0,1-1.185-3.495,5.275,5.275,0,0,1,1.1-3.465,4.005,4.005,0,0,1,3.287-1.333,4.094,4.094,0,0,1,3.2,1.244,5.119,5.119,0,0,1,1.126,3.554,4.978,4.978,0,0,1-1.185,3.524A4.085,4.085,0,0,1,276.14,82.927Z" transform="translate(0 -6.93)"/><path d="M288.994,67.289a.261.261,0,0,1-.3-.3V58.759c0-.157.1-.237.3-.237h21.975V49.875a5.759,5.759,0,0,0-2.31-4.769,9.63,9.63,0,0,0-6.1-1.806H292.489V35.836q1.007-2.072,2.132-3.909a36.432,36.432,0,0,1,2.429-3.5,36.462,36.462,0,0,1,7.759-6.931,48.224,48.224,0,0,1,10.6-5.212l4.146,10.248a41.687,41.687,0,0,0-4.738,1.421,31.577,31.577,0,0,0-4.206,1.9,26.627,26.627,0,0,0-3.495,2.25,17.356,17.356,0,0,0-2.606,2.429h.3q8.885,0,13.209,3.436t4.324,10.661V67.289Z" transform="translate(0 -6.93)"/><path d="M330.99,17.651,334.484,17a5.265,5.265,0,0,1-1.954-1.629,4.14,4.14,0,0,1-.829-2.577A5.315,5.315,0,0,1,333.566,8.5a7.43,7.43,0,0,1,4.946-1.57,10.472,10.472,0,0,1,5.509,1.362l-1.362,3.5a6.924,6.924,0,0,0-1.688-.593,8.367,8.367,0,0,0-1.689-.177,2.508,2.508,0,0,0-1.984.77,2.84,2.84,0,0,0-.681,1.954,2.276,2.276,0,0,0,.563,1.54,3.2,3.2,0,0,0,1.451.948l.711-.119q1.361-.236,2.191-.325c.553-.059,1.026-.109,1.422-.148s.809-.079,1.244-.119V19.9q-1.067.06-2.844.237t-3.761.415q-1.984.237-3.761.474t-2.843.414Zm1.717,8.175h11.314V67.289H332.707Z" transform="translate(0 -6.93)"/><path d="M440.511,67.289a10.279,10.279,0,0,1-4.768-1.244,15.2,15.2,0,0,1-4.353-3.435,10.476,10.476,0,0,1-4.532,3.583,16.324,16.324,0,0,1-6.19,1.1H413.56q-.888,7.464-5.775,11.107t-13.416,3.642h-1.3a25.9,25.9,0,0,1-5.568-.562,20.882,20.882,0,0,1-4.62-1.57,15.153,15.153,0,0,1-6.663-6.308,19.542,19.542,0,0,1-2.281-9.626,24.037,24.037,0,0,1,.918-6.486,25.222,25.222,0,0,1,2.518-6.012h9.714q-.888,3.554-1.51,6.753a24.658,24.658,0,0,0-.5,5.8,10.273,10.273,0,0,0,2.251,6.16,7.337,7.337,0,0,0,6.042,2.548h.77q4.2,0,6.19-2.548a10.9,10.9,0,0,0,1.984-6.871V42.174h11.313V58.522h4.146q3.081,0,4.266-1.51t1.184-5.361V42.174h11.373V52.658q0,.771-.059,1.541a12.057,12.057,0,0,1-.237,1.6,12.239,12.239,0,0,0,2.754,2.1,6.955,6.955,0,0,0,3.169.622h3.732V37.554H455.32V58.522h7.522c.2,0,.3.08.3.237v8.234a.262.262,0,0,1-.3.3ZM422.327,32.815a3.981,3.981,0,0,1-3.258-1.362,5.121,5.121,0,0,1-1.126-3.376,5.093,5.093,0,0,1,1.126-3.406,4.023,4.023,0,0,1,3.258-1.333,4.108,4.108,0,0,1,3.168,1.244,4.942,4.942,0,0,1,1.156,3.5,4.817,4.817,0,0,1-1.215,3.465A4.1,4.1,0,0,1,422.327,32.815Zm6.219-10.069a3.972,3.972,0,0,1-4.087-4.325,4.1,4.1,0,0,1,1.214-3.287,4.287,4.287,0,0,1,2.873-1.036,3.81,3.81,0,0,1,2.991,1.154,4.576,4.576,0,0,1,1.037,3.169,4.753,4.753,0,0,1-1.037,2.992A3.564,3.564,0,0,1,428.546,22.746Zm6.1,10.069a4.105,4.105,0,0,1-3.2-1.3,4.9,4.9,0,0,1-1.185-3.435,5.048,5.048,0,0,1,1.126-3.466,4.655,4.655,0,0,1,6.367-.029,4.794,4.794,0,0,1,1.214,3.5,4.816,4.816,0,0,1-1.214,3.465A4.1,4.1,0,0,1,434.647,32.815Z" transform="translate(0 -6.93)"/><path d="M462.249,67.289a.262.262,0,0,1-.3-.3V58.759c0-.157.1-.237.3-.237h8.886V37.554h11.194V58.522h8.886c.2,0,.3.08.3.237v8.234a.261.261,0,0,1-.3.3Zm7.879,14.986a3.982,3.982,0,0,1-3.258-1.362,5.67,5.67,0,0,1,0-6.783,4.652,4.652,0,0,1,6.456-.059,5.05,5.05,0,0,1,1.126,3.466A4.885,4.885,0,0,1,473.267,81,4.086,4.086,0,0,1,470.128,82.275Zm11.728,0a4.112,4.112,0,0,1-3.2-1.3,5.62,5.62,0,0,1,0-6.9,4.157,4.157,0,0,1,3.2-1.273,4.111,4.111,0,0,1,3.169,1.244,4.94,4.94,0,0,1,1.155,3.5A4.819,4.819,0,0,1,484.966,81,4.111,4.111,0,0,1,481.856,82.275Z" transform="translate(0 -6.93)"/><path d="M490.621,67.289a.261.261,0,0,1-.295-.3V58.759c0-.157.1-.237.295-.237h8.116a4.911,4.911,0,0,1-1.926-1.51,9.963,9.963,0,0,1-1.629-2.813,9.789,9.789,0,0,1-.651-3.614,12.419,12.419,0,0,1,2.132-7.2,14.178,14.178,0,0,1,6.161-4.887,23.658,23.658,0,0,1,9.595-1.776,27.649,27.649,0,0,1,6.1.681,21.12,21.12,0,0,1,4.976,1.688l-3.08,8.589a22.455,22.455,0,0,0-4.028-1.629,14.283,14.283,0,0,0-3.969-.563,7.36,7.36,0,0,0-3.435.77,5.612,5.612,0,0,0-2.31,2.192,6.452,6.452,0,0,0-.829,3.317,6.383,6.383,0,0,0,3.583,5.805,9.4,9.4,0,0,0,4.413.947h10.07v8.767Z" transform="translate(0 -6.93)"/><path d="M247.532,136.4a11.9,11.9,0,0,1-8.885-3.436q-3.377-3.435-3.377-9.359a22.137,22.137,0,0,1,.3-3.465,27.41,27.41,0,0,1,.8-3.554,14.007,14.007,0,0,1,1.1-2.754h10.07a37.436,37.436,0,0,0-.652,3.791,33.953,33.953,0,0,0-.237,4.087,6.116,6.116,0,0,0,1.511,4.235,4.905,4.905,0,0,0,3.82,1.688h17.948V91.377h11.314v36.251h7.581c.2,0,.3.08.3.237V136.1a.263.263,0,0,1-.3.3Zm4.5-21.562,3.731-.592a5.181,5.181,0,0,1-2.162-1.629,4.049,4.049,0,0,1-.859-2.576,5.212,5.212,0,0,1,1.807-4.087,7.287,7.287,0,0,1,5-1.6,10.369,10.369,0,0,1,3.021.415,14.29,14.29,0,0,1,2.488,1.007l-1.422,3.258a8.173,8.173,0,0,0-3.317-.829,2.466,2.466,0,0,0-2.014.859,2.865,2.865,0,0,0-.711,1.865,2.691,2.691,0,0,0,.415,1.481,3.3,3.3,0,0,0,1.362,1.125l1.126-.177q1.244-.178,2.014-.3t1.392-.178c.415-.039.858-.079,1.333-.119v4.088q-1.008.058-1.866.148t-1.866.207q-1.008.12-2.606.3-.652.06-2.34.3t-4.531.652Z" transform="translate(0 -6.93)"/><path d="M288.224,136.4a.262.262,0,0,1-.3-.3v-8.233c0-.157.1-.237.3-.237h9.714V106.659h11.2V136.4Zm8.589-34.474a3.984,3.984,0,0,1-3.258-1.362,5.675,5.675,0,0,1,0-6.783,4.651,4.651,0,0,1,6.457-.059,5.055,5.055,0,0,1,1.125,3.465,4.888,4.888,0,0,1-1.184,3.465A4.085,4.085,0,0,1,296.813,101.921Zm11.728,0a4.105,4.105,0,0,1-3.2-1.3,5.616,5.616,0,0,1,0-6.9,4.154,4.154,0,0,1,3.2-1.274,4.111,4.111,0,0,1,3.169,1.245,4.941,4.941,0,0,1,1.155,3.494,4.814,4.814,0,0,1-1.214,3.465A4.105,4.105,0,0,1,308.541,101.921Z" transform="translate(0 -6.93)"/><path d="M337.862,127.628c.2,0,.3.08.3.237V136.1a.263.263,0,0,1-.3.3h-18.3V91.377h11.2v36.251Z" transform="translate(0 -6.93)"/><path d="M337.268,136.4a.262.262,0,0,1-.295-.3v-8.233c0-.157.1-.237.295-.237h8.886V106.659h11.194v20.969h8.886c.2,0,.3.08.3.237V136.1a.262.262,0,0,1-.3.3Zm7.879,14.985a3.984,3.984,0,0,1-3.258-1.362,5.673,5.673,0,0,1,0-6.782,4.649,4.649,0,0,1,6.456-.059,5.047,5.047,0,0,1,1.126,3.465,4.887,4.887,0,0,1-1.185,3.465A4.085,4.085,0,0,1,345.147,151.38Zm11.728,0a4.112,4.112,0,0,1-3.2-1.3,5.62,5.62,0,0,1,0-6.9,4.656,4.656,0,0,1,6.368-.03,4.944,4.944,0,0,1,1.155,3.5,4.822,4.822,0,0,1-1.214,3.465A4.11,4.11,0,0,1,356.875,151.38Z" transform="translate(0 -6.93)"/><path d="M365.64,136.4a.262.262,0,0,1-.295-.3v-8.233c0-.157.1-.237.295-.237h22.45a8.564,8.564,0,0,1-1.688-2.814,28.769,28.769,0,0,1-1.155-3.7,9.729,9.729,0,0,0-1.57-3.85,5.543,5.543,0,0,0-2.428-1.895,8.459,8.459,0,0,0-3.051-.534,12.883,12.883,0,0,0-3.672.563,17.145,17.145,0,0,0-3.732,1.629l-3.08-8.293a58.613,58.613,0,0,1,6.19-2.369,24.565,24.565,0,0,1,7.611-1.125,20.947,20.947,0,0,1,2.222.118,21.578,21.578,0,0,1,2.4.415,11.649,11.649,0,0,1,6.337,3.939,16.8,16.8,0,0,1,3.376,7.908,40.886,40.886,0,0,0,1.008,4.087,23,23,0,0,0,1.332,3.465,11.208,11.208,0,0,0,1.511,2.4V136.4Z" transform="translate(0 -6.93)"/><path d="M440.926,150.61a13.609,13.609,0,0,1-7.256-1.836,12.349,12.349,0,0,1-4.561-4.8,13.336,13.336,0,0,1-1.57-6.338,38.493,38.493,0,0,1,.474-5.865,53.946,53.946,0,0,1,1.3-6.1h9.951a45.315,45.315,0,0,0-.8,4.62,35.417,35.417,0,0,0-.267,4.147,11.815,11.815,0,0,0,.563,3.761,5.041,5.041,0,0,0,2.014,2.666,7.21,7.21,0,0,0,4.057.977h10.781a23.985,23.985,0,0,0,2.962-.177,9.092,9.092,0,0,0,2.339-.563q.918-.387.918-1.037a1.6,1.6,0,0,0-.859-1.333,11.564,11.564,0,0,0-2.873-1.155,16.3,16.3,0,0,1-4.146-1.747,10.276,10.276,0,0,1-2.666-2.311,8.343,8.343,0,0,1-1.451-2.694,9.682,9.682,0,0,1-.444-2.9,13.7,13.7,0,0,1,.444-3.554,11.746,11.746,0,0,1,1.629-3.435,19.388,19.388,0,0,1,4.058-4.413,23.337,23.337,0,0,1,5.094-3.169,11.788,11.788,0,0,1,4.768-1.185,9.237,9.237,0,0,1,2.251.267,10.386,10.386,0,0,1,1.836.622,10.9,10.9,0,0,1,3.969,2.991q1.6,1.926,3.613,4.768,1.3,1.837,2.34,3.258a13.168,13.168,0,0,0,1.57,1.895,5.1,5.1,0,0,0,2.547,1.392,13.01,13.01,0,0,0,2.487.267h.3c.2,0,.3.08.3.237V136.1a.263.263,0,0,1-.3.3H486a40.536,40.536,0,0,1-5.153-.267,9.222,9.222,0,0,1-3.406-1.066,12.846,12.846,0,0,1-2.814-2.281,18.452,18.452,0,0,1-1.332-1.688q-.741-1.035-1.926-2.695-1.3-1.894-2.4-3.2a13.186,13.186,0,0,0-1.866-1.895,7.248,7.248,0,0,0-1.363-.948,3.155,3.155,0,0,0-1.421-.3,3.3,3.3,0,0,0-1.392.385,7.387,7.387,0,0,0-1.54,1.007,6.758,6.758,0,0,0-1.214,1.3,2.33,2.33,0,0,0-.474,1.333,2.486,2.486,0,0,0,.474,1.451,4.743,4.743,0,0,0,1.421,1.273,14.729,14.729,0,0,0,2.251,1.126q1.777.711,3.08,1.362a19.025,19.025,0,0,1,2.251,1.3,8.428,8.428,0,0,1,2.843,3.139,9.675,9.675,0,0,1-3.7,12.113q-4.532,2.754-13.653,2.754Zm2.132,14.1a3.985,3.985,0,0,1-3.258-1.362,5.675,5.675,0,0,1,0-6.783,4.651,4.651,0,0,1,6.457-.059,5.054,5.054,0,0,1,1.125,3.466,4.893,4.893,0,0,1-1.184,3.465A4.091,4.091,0,0,1,443.058,164.708Zm11.728,0a4.109,4.109,0,0,1-3.2-1.3,5.616,5.616,0,0,1,0-6.9,4.653,4.653,0,0,1,6.367-.029,4.94,4.94,0,0,1,1.155,3.5,4.819,4.819,0,0,1-1.214,3.465A4.112,4.112,0,0,1,454.786,164.708Z" transform="translate(0 -6.93)"/><path d="M485.705,136.4a.262.262,0,0,1-.295-.3v-8.233c0-.157.1-.237.295-.237h8.827a7.582,7.582,0,0,1-2.015-1.9,10.668,10.668,0,0,1-1.451-2.694,8.986,8.986,0,0,1-.562-3.169,11.335,11.335,0,0,1,2.191-6.931,14.184,14.184,0,0,1,6.368-4.62,27.4,27.4,0,0,1,10.1-1.659h12.38V136.4Zm23.161-8.767h1.481v-12.2H509.34a11.6,11.6,0,0,0-4.058.652,5.781,5.781,0,0,0-2.725,1.984,5.512,5.512,0,0,0-.977,3.347,5.33,5.33,0,0,0,1.1,3.4,6.9,6.9,0,0,0,2.755,2.1A8.628,8.628,0,0,0,508.866,127.628Zm1.481-25.411a4.39,4.39,0,0,1-3.406-1.392,5.181,5.181,0,0,1-1.274-3.643,5.294,5.294,0,0,1,1.215-3.7,5.1,5.1,0,0,1,6.841-.03,5.2,5.2,0,0,1,1.244,3.732,5.139,5.139,0,0,1-1.274,3.7A4.419,4.419,0,0,1,510.347,102.217Z" transform="translate(0 -6.93)"/></g></g></svg>