<svg xmlns="http://www.w3.org/2000/svg" viewBox="0 0 543.528 158.867"><g id="Calque_2" data-name="Calque 2"><g id="Calque_1-2" data-name="Calque 1"><circle cx="71.092" cy="87.775" r="71.092" fill="#ef1f1e"/><path d="M133.86,55.156q-6.354,0-9.53-3.008t-3.176-8.5a16.006,16.006,0,0,1,1.588-7.171,12.088,12.088,0,0,1,4.5-4.741A12.961,12.961,0,0,1,134,30.033a12.554,12.554,0,0,1,3.321.433,11.042,11.042,0,0,1,6.185,4.283,16.413,16.413,0,0,1,2.262,4.332,15.2,15.2,0,0,1,.842,5.054q0,5.486-3.224,8.254T133.86,55.156ZM128.9,26.712a3.231,3.231,0,0,1-2.648-1.108,4.162,4.162,0,0,1-.914-2.743,4.145,4.145,0,0,1,.914-2.767,3.781,3.781,0,0,1,5.246-.048,4.1,4.1,0,0,1,.915,2.815,3.97,3.97,0,0,1-.963,2.816A3.318,3.318,0,0,1,128.9,26.712Zm4.812,21.129a3.283,3.283,0,0,0,2.984-1.2,5.625,5.625,0,0,0,.771-3.081,9.836,9.836,0,0,0-.482-3.128,6.012,6.012,0,0,0-1.347-2.334,2.686,2.686,0,0,0-1.974-.891,2.9,2.9,0,0,0-2.069.77,4.725,4.725,0,0,0-1.228,2.166,11.719,11.719,0,0,0-.409,3.273,5.832,5.832,0,0,0,.794,3.176A3.234,3.234,0,0,0,133.715,47.841Zm4.717-21.129a3.339,3.339,0,0,1-2.6-1.059,3.989,3.989,0,0,1-.963-2.792,3.97,3.97,0,0,1,.963-2.815,3.785,3.785,0,0,1,5.174-.024,4.014,4.014,0,0,1,.939,2.839,3.915,3.915,0,0,1-.987,2.816A3.339,3.339,0,0,1,138.432,26.712Z" transform="translate(0 -5.632)"/><path d="M170.294,54.675V55.2a12.188,12.188,0,0,1-1.564,6.185,11.254,11.254,0,0,1-4.38,4.283,13.31,13.31,0,0,1-6.57,1.564,16.33,16.33,0,0,1-4.548-.674,18.734,18.734,0,0,1-5.078-2.5l3.225-6.834a16.4,16.4,0,0,0,2.7,1.2,7.53,7.53,0,0,0,2.359.433,4.493,4.493,0,0,0,3.32-1.3,4.21,4.21,0,0,0,1.3-3.08V30.514h9.241V47.552h6.449c.161,0,.241.064.241.192v6.691a.212.212,0,0,1-.241.24Z" transform="translate(0 -5.632)"/><path d="M176.261,54.675a.213.213,0,0,1-.241-.24V47.744c0-.128.081-.192.241-.192h5.775a14.74,14.74,0,0,1-1.227-2.623,9.994,9.994,0,0,1-.554-3.442,19.079,19.079,0,0,1,.554-4.331,12.341,12.341,0,0,1,2.045-4.428,26.007,26.007,0,0,1,5.006-2.166,17.133,17.133,0,0,1,5.053-.77,14.958,14.958,0,0,1,6.69,1.444,10.742,10.742,0,0,1,4.644,4.211,11.784,11.784,0,0,1,1.661,6.185,13.147,13.147,0,0,1-.53,3.73A13.638,13.638,0,0,1,203.646,49a11.778,11.778,0,0,1-5,4.092,18.1,18.1,0,0,1-7.8,1.588Zm12.994-12.417a12.6,12.6,0,0,0,.314,2.815,14.013,14.013,0,0,0,.793,2.479h1.444a5.185,5.185,0,0,0,2.383-.577,4.558,4.558,0,0,0,1.852-1.806,5.931,5.931,0,0,0,.723-3.056,4.924,4.924,0,0,0-1.18-3.513,3.736,3.736,0,0,0-2.815-1.251,5.256,5.256,0,0,0-1.468.216,4.163,4.163,0,0,0-1.42.746,10.264,10.264,0,0,0-.481,2.045A14.669,14.669,0,0,0,189.255,42.258Z" transform="translate(0 -5.632)"/><path d="M228.047,47.552c.16,0,.241.064.241.192v6.691a.213.213,0,0,1-.241.24H213.175V18.1h9.1V47.552Z" transform="translate(0 -5.632)"/><path d="M252.015,54.675a21.018,21.018,0,0,1-6.377-.842,22.449,22.449,0,0,1-4.067-1.661A24.423,24.423,0,0,1,237.191,54a16.614,16.614,0,0,1-4.861.674h-4.764a.213.213,0,0,1-.242-.24V47.744c0-.128.081-.192.242-.192h2.887a18.02,18.02,0,0,0,2.936-.217,16.089,16.089,0,0,0,2.069-.457,8.85,8.85,0,0,1-1.42-1.468,21.635,21.635,0,0,1-1.323-1.949,36.963,36.963,0,0,1-2.431-5.054,26.369,26.369,0,0,1-1.515-5.343,23.05,23.05,0,0,1,4.548-2.623,27.668,27.668,0,0,1,5.077-1.66,22.471,22.471,0,0,1,4.861-.577,38.977,38.977,0,0,1,6.906.554,23.505,23.505,0,0,1,5.9,1.9,24.575,24.575,0,0,1-.891,6.714,20.436,20.436,0,0,1-2.5,5.632,14.027,14.027,0,0,1-3.778,3.971,8.909,8.909,0,0,0,1.4.384,13.322,13.322,0,0,0,2.6.193h4.572c.16,0,.241.064.241.192v6.691a.213.213,0,0,1-.241.24ZM242.629,43.7a14.508,14.508,0,0,0,3.2-3.537,9.6,9.6,0,0,0,1.468-4.5,13.085,13.085,0,0,0-1.66-.241q-1.037-.1-2.046-.1a14.5,14.5,0,0,0-2.334.193,15.8,15.8,0,0,0-2.046.457,3.662,3.662,0,0,0-1.155.505,23.927,23.927,0,0,0,1.155,2.839,14.5,14.5,0,0,0,1.54,2.528A8.916,8.916,0,0,0,242.629,43.7Zm0-19.54a3.57,3.57,0,0,1-2.767-1.131,4.212,4.212,0,0,1-1.035-2.96,4.3,4.3,0,0,1,.987-3.008,4.142,4.142,0,0,1,5.559-.024,4.221,4.221,0,0,1,1.011,3.032,4.18,4.18,0,0,1-1.035,3.008A3.592,3.592,0,0,1,242.629,24.161Z" transform="translate(0 -5.632)"/><path d="M256.972,54.675a.213.213,0,0,1-.241-.24V47.744c0-.128.081-.192.241-.192h5.775a14.74,14.74,0,0,1-1.227-2.623,9.994,9.994,0,0,1-.554-3.442,19.079,19.079,0,0,1,.554-4.331,12.341,12.341,0,0,1,2.045-4.428,26.007,26.007,0,0,1,5.006-2.166,17.128,17.128,0,0,1,5.053-.77,14.958,14.958,0,0,1,6.69,1.444,10.742,10.742,0,0,1,4.644,4.211,11.784,11.784,0,0,1,1.661,6.185,13.147,13.147,0,0,1-.53,3.73A13.638,13.638,0,0,1,284.357,49a11.778,11.778,0,0,1-5.005,4.092,18.1,18.1,0,0,1-7.8,1.588Zm12.994-12.417a12.658,12.658,0,0,0,.313,2.815,14.012,14.012,0,0,0,.794,2.479h1.444a5.185,5.185,0,0,0,2.383-.577,4.558,4.558,0,0,0,1.852-1.806,5.931,5.931,0,0,0,.723-3.056A4.924,4.924,0,0,0,276.3,38.6a3.736,3.736,0,0,0-2.815-1.251,5.256,5.256,0,0,0-1.468.216,4.163,4.163,0,0,0-1.42.746,10.264,10.264,0,0,0-.481,2.045A14.669,14.669,0,0,0,269.966,42.258Z" transform="translate(0 -5.632)"/><path d="M326.036,54.675V55.2a12.188,12.188,0,0,1-1.564,6.185,11.254,11.254,0,0,1-4.38,4.283,13.306,13.306,0,0,1-6.569,1.564,16.331,16.331,0,0,1-4.549-.674,18.716,18.716,0,0,1-5.077-2.5l3.224-6.834a16.371,16.371,0,0,0,2.7,1.2,7.519,7.519,0,0,0,2.358.433,4.492,4.492,0,0,0,3.32-1.3,4.207,4.207,0,0,0,1.3-3.08V30.514h9.241V47.552h6.45q.24,0,.24.192v6.691a.212.212,0,0,1-.24.24Z" transform="translate(0 -5.632)"/><path d="M332,54.675a.213.213,0,0,1-.241-.24V47.744c0-.128.081-.192.241-.192h5.775V30.514h9.1V47.552h6.257c.16,0,.241.064.241.192v6.691a.213.213,0,0,1-.241.24Zm10.2,12.706a3.339,3.339,0,0,1-2.6-1.059,4.06,4.06,0,0,1-.962-2.84,4.286,4.286,0,0,1,.89-2.815,3.256,3.256,0,0,1,2.671-1.083,3.327,3.327,0,0,1,2.6,1.011,4.161,4.161,0,0,1,.915,2.887,4.044,4.044,0,0,1-.963,2.864A3.32,3.32,0,0,1,342.207,67.381Z" transform="translate(0 -5.632)"/><path d="M352.651,54.675a.213.213,0,0,1-.242-.24V47.744c0-.128.081-.192.242-.192h17.855V40.524a4.682,4.682,0,0,0-1.877-3.874,7.828,7.828,0,0,0-4.957-1.467h-8.183V29.118q.819-1.684,1.734-3.177A29.288,29.288,0,0,1,359.2,23.1a29.579,29.579,0,0,1,6.3-5.632,39.267,39.267,0,0,1,8.615-4.236l3.37,8.327a34.033,34.033,0,0,0-3.851,1.155,25.762,25.762,0,0,0-3.417,1.54,21.664,21.664,0,0,0-2.84,1.829,14.12,14.12,0,0,0-2.117,1.974h.24q7.221,0,10.734,2.791t3.512,8.664v15.16Z" transform="translate(0 -5.632)"/><path d="M386.774,14.343l2.839-.53a4.271,4.271,0,0,1-1.587-1.323,3.363,3.363,0,0,1-.674-2.094,4.321,4.321,0,0,1,1.515-3.489,6.037,6.037,0,0,1,4.019-1.275,8.5,8.5,0,0,1,4.476,1.106l-1.107,2.84a5.618,5.618,0,0,0-1.371-.481,6.718,6.718,0,0,0-1.372-.145,2.037,2.037,0,0,0-1.612.626,2.3,2.3,0,0,0-.554,1.588,1.856,1.856,0,0,0,.457,1.252,2.617,2.617,0,0,0,1.18.77l.577-.1q1.107-.192,1.781-.265c.448-.049.834-.089,1.155-.121l1.011-.1v3.562q-.867.048-2.311.192t-3.056.337q-1.612.193-3.056.385t-2.31.337Zm1.395,6.641h9.193V54.675h-9.193Z" transform="translate(0 -5.632)"/><path d="M475.764,54.675a8.36,8.36,0,0,1-3.875-1.011,12.356,12.356,0,0,1-3.537-2.791,8.508,8.508,0,0,1-3.682,2.911,13.248,13.248,0,0,1-5.029.891h-5.777q-.72,6.065-4.692,9.024t-10.9,2.96h-1.059a21.016,21.016,0,0,1-4.523-.457,16.94,16.94,0,0,1-3.755-1.276A12.308,12.308,0,0,1,423.52,59.8a15.879,15.879,0,0,1-1.854-7.822,19.547,19.547,0,0,1,.746-5.27,20.519,20.519,0,0,1,2.046-4.885h7.894q-.723,2.889-1.228,5.488a20.09,20.09,0,0,0-.409,4.715,8.348,8.348,0,0,0,1.829,5.006,5.961,5.961,0,0,0,4.909,2.07h.625a5.982,5.982,0,0,0,5.03-2.07,8.849,8.849,0,0,0,1.613-5.583V34.269h9.192V47.552h3.369q2.5,0,3.465-1.228t.963-4.355v-7.7h9.24v8.518c0,.417-.016.835-.047,1.251a9.973,9.973,0,0,1-.193,1.3,9.944,9.944,0,0,0,2.238,1.708,5.655,5.655,0,0,0,2.575.506h3.032V30.514H487.8V47.552h6.112c.161,0,.241.064.241.192v6.691a.212.212,0,0,1-.241.24ZM460.988,26.664a3.236,3.236,0,0,1-2.647-1.107,4.164,4.164,0,0,1-.915-2.744,4.139,4.139,0,0,1,.915-2.767,3.27,3.27,0,0,1,2.647-1.083,3.341,3.341,0,0,1,2.575,1.011,4.013,4.013,0,0,1,.938,2.839,3.915,3.915,0,0,1-.986,2.816A3.338,3.338,0,0,1,460.988,26.664Zm5.053-8.183a3.224,3.224,0,0,1-3.32-3.512,3.328,3.328,0,0,1,.986-2.672,3.481,3.481,0,0,1,2.334-.842,3.1,3.1,0,0,1,2.431.939,3.719,3.719,0,0,1,.843,2.575,3.862,3.862,0,0,1-.843,2.43A2.894,2.894,0,0,1,466.041,18.481ZM471,26.664a3.33,3.33,0,0,1-2.6-1.06,3.984,3.984,0,0,1-.962-2.791A4.1,4.1,0,0,1,468.352,20a3.782,3.782,0,0,1,5.174-.024,3.9,3.9,0,0,1,.986,2.839,3.915,3.915,0,0,1-.986,2.816A3.339,3.339,0,0,1,471,26.664Z" transform="translate(0 -5.632)"/><path d="M493.427,54.675a.213.213,0,0,1-.241-.24V47.744c0-.128.081-.192.241-.192h7.219V30.514h9.1V47.552h7.219c.16,0,.241.064.241.192v6.691a.213.213,0,0,1-.241.24Zm6.4,12.177a3.235,3.235,0,0,1-2.646-1.108,4.606,4.606,0,0,1,0-5.511,3.777,3.777,0,0,1,5.246-.047A4.1,4.1,0,0,1,503.341,63a3.969,3.969,0,0,1-.963,2.815A3.317,3.317,0,0,1,499.827,66.852Zm9.531,0a3.343,3.343,0,0,1-2.6-1.059,4.566,4.566,0,0,1,0-5.607,3.376,3.376,0,0,1,2.6-1.036,3.341,3.341,0,0,1,2.574,1.011A4.014,4.014,0,0,1,512.87,63a3.914,3.914,0,0,1-.986,2.815A3.338,3.338,0,0,1,509.358,66.852Z" transform="translate(0 -5.632)"/><path d="M516.48,54.675a.214.214,0,0,1-.242-.24V47.744c0-.128.082-.192.242-.192h6.592a4.01,4.01,0,0,1-1.563-1.228,8.072,8.072,0,0,1-1.324-2.286,7.952,7.952,0,0,1-.53-2.935,10.09,10.09,0,0,1,1.734-5.848,11.5,11.5,0,0,1,5-3.971,19.2,19.2,0,0,1,7.8-1.444,22.466,22.466,0,0,1,4.957.554,17.2,17.2,0,0,1,4.043,1.372l-2.5,6.978a18.227,18.227,0,0,0-3.273-1.323,11.591,11.591,0,0,0-3.224-.458,5.975,5.975,0,0,0-2.791.626,4.56,4.56,0,0,0-1.877,1.781,5.233,5.233,0,0,0-.674,2.7,5.188,5.188,0,0,0,2.911,4.716,7.634,7.634,0,0,0,3.586.771h8.182v7.123Z" transform="translate(0 -5.632)"/><path d="M318.961,110.825a9.669,9.669,0,0,1-7.219-2.791,10.377,10.377,0,0,1-2.744-7.6,17.971,17.971,0,0,1,.241-2.816,22.465,22.465,0,0,1,.65-2.888,11.306,11.306,0,0,1,.89-2.238h8.182a30.938,30.938,0,0,0-.529,3.08,27.475,27.475,0,0,0-.193,3.322,4.966,4.966,0,0,0,1.228,3.44,3.983,3.983,0,0,0,3.1,1.372h14.583V74.247h9.193V103.7h6.16c.16,0,.241.065.241.193v6.69a.213.213,0,0,1-.241.24Zm3.658-17.518,3.033-.482A4.216,4.216,0,0,1,323.9,91.5a3.288,3.288,0,0,1-.7-2.093,4.24,4.24,0,0,1,1.468-3.321,5.929,5.929,0,0,1,4.068-1.3,8.436,8.436,0,0,1,2.454.337,11.707,11.707,0,0,1,2.021.818l-1.154,2.648a6.656,6.656,0,0,0-2.695-.674,2.009,2.009,0,0,0-1.637.7,2.334,2.334,0,0,0-.577,1.517,2.181,2.181,0,0,0,.337,1.2,2.661,2.661,0,0,0,1.106.914l.914-.143q1.011-.145,1.637-.242c.417-.063.794-.112,1.131-.144s.7-.064,1.083-.1v3.32q-.819.05-1.516.12t-1.516.169q-.819.1-2.118.241-.529.05-1.9.241t-3.682.529Z" transform="translate(0 -5.632)"/><path d="M352.027,110.825a.213.213,0,0,1-.242-.24V103.9c0-.128.081-.193.242-.193h7.892V86.664h9.1v24.161Zm6.978-28.011a3.236,3.236,0,0,1-2.647-1.107,4.611,4.611,0,0,1,0-5.511,3.778,3.778,0,0,1,5.246-.048,4.107,4.107,0,0,1,.914,2.816,3.971,3.971,0,0,1-.962,2.815A3.317,3.317,0,0,1,359.005,82.814Zm9.529,0a3.333,3.333,0,0,1-2.6-1.059,4.562,4.562,0,0,1,0-5.607,3.379,3.379,0,0,1,2.6-1.035,3.344,3.344,0,0,1,2.576,1.011,4.021,4.021,0,0,1,.938,2.84,3.913,3.913,0,0,1-.987,2.815A3.333,3.333,0,0,1,368.534,82.814Z" transform="translate(0 -5.632)"/><path d="M392.358,103.7c.16,0,.241.065.241.193v6.69a.213.213,0,0,1-.241.24H377.486V74.247h9.1V103.7Z" transform="translate(0 -5.632)"/><path d="M391.876,110.825a.213.213,0,0,1-.241-.24V103.9c0-.128.081-.193.241-.193H399.1V86.664h9.1V103.7h7.218c.161,0,.242.065.242.193v6.69a.213.213,0,0,1-.242.24Zm6.4,12.177a3.235,3.235,0,0,1-2.647-1.107,4.607,4.607,0,0,1,0-5.511,3.778,3.778,0,0,1,5.246-.048,4.1,4.1,0,0,1,.914,2.815,3.973,3.973,0,0,1-.963,2.816A3.319,3.319,0,0,1,398.277,123Zm9.53,0a3.343,3.343,0,0,1-2.6-1.059,4.566,4.566,0,0,1,0-5.607,3.378,3.378,0,0,1,2.6-1.035,3.339,3.339,0,0,1,2.574,1.011,4.012,4.012,0,0,1,.939,2.839,3.918,3.918,0,0,1-.987,2.816A3.341,3.341,0,0,1,407.807,123Z" transform="translate(0 -5.632)"/><path d="M414.93,110.825a.213.213,0,0,1-.241-.24V103.9c0-.128.081-.193.241-.193h18.24a6.954,6.954,0,0,1-1.371-2.286,23.247,23.247,0,0,1-.938-3.008,7.93,7.93,0,0,0-1.276-3.129,4.519,4.519,0,0,0-1.973-1.54,6.878,6.878,0,0,0-2.479-.432,10.452,10.452,0,0,0-2.984.457,13.9,13.9,0,0,0-3.033,1.323l-2.5-6.738a47.447,47.447,0,0,1,5.03-1.925,19.916,19.916,0,0,1,6.184-.914,17.121,17.121,0,0,1,1.805.095,17.511,17.511,0,0,1,1.949.337,9.471,9.471,0,0,1,5.15,3.2,13.654,13.654,0,0,1,2.743,6.424,33.321,33.321,0,0,0,.818,3.322,18.731,18.731,0,0,0,1.083,2.815,9.158,9.158,0,0,0,1.228,1.949v7.171Z" transform="translate(0 -5.632)"/><path d="M476.1,122.376a11.068,11.068,0,0,1-5.9-1.492,10.041,10.041,0,0,1-3.706-3.9,10.845,10.845,0,0,1-1.275-5.149,31.222,31.222,0,0,1,.386-4.765,43.423,43.423,0,0,1,1.058-4.957h8.086a36.633,36.633,0,0,0-.65,3.754,28.887,28.887,0,0,0-.216,3.369,9.59,9.59,0,0,0,.457,3.056,4.1,4.1,0,0,0,1.636,2.166,5.859,5.859,0,0,0,3.3.794h8.759a19.265,19.265,0,0,0,2.407-.145,7.318,7.318,0,0,0,1.9-.457q.746-.314.746-.841a1.3,1.3,0,0,0-.7-1.083,9.313,9.313,0,0,0-2.334-.939,13.255,13.255,0,0,1-3.369-1.42,8.356,8.356,0,0,1-2.166-1.877,6.753,6.753,0,0,1-1.179-2.19,7.851,7.851,0,0,1-.361-2.359,11.111,11.111,0,0,1,.361-2.887,9.54,9.54,0,0,1,1.323-2.791,15.715,15.715,0,0,1,3.3-3.586A18.954,18.954,0,0,1,492.1,92.1a9.568,9.568,0,0,1,3.874-.963,7.543,7.543,0,0,1,1.829.216,8.558,8.558,0,0,1,1.492.5,8.888,8.888,0,0,1,3.225,2.431q1.3,1.564,2.935,3.874,1.057,1.493,1.9,2.647a10.707,10.707,0,0,0,1.275,1.54,4.144,4.144,0,0,0,2.069,1.131,10.549,10.549,0,0,0,2.022.217h.24c.16,0,.241.065.241.193v6.69a.213.213,0,0,1-.241.24h-.24a32.887,32.887,0,0,1-4.188-.217,7.468,7.468,0,0,1-2.767-.866,10.441,10.441,0,0,1-2.286-1.852,15.117,15.117,0,0,1-1.083-1.372q-.6-.842-1.564-2.19-1.059-1.539-1.949-2.6a10.754,10.754,0,0,0-1.517-1.541,5.869,5.869,0,0,0-1.106-.769,2.565,2.565,0,0,0-1.155-.241,2.672,2.672,0,0,0-1.131.313,5.975,5.975,0,0,0-1.252.818,5.478,5.478,0,0,0-.987,1.059,1.9,1.9,0,0,0-.384,1.083,2.03,2.03,0,0,0,.384,1.179,3.876,3.876,0,0,0,1.156,1.035,12.108,12.108,0,0,0,1.829.914q1.443.578,2.5,1.108a15.584,15.584,0,0,1,1.829,1.058,6.849,6.849,0,0,1,2.31,2.551,7.86,7.86,0,0,1-3.007,9.842q-3.684,2.238-11.094,2.238Zm1.732,11.455a3.236,3.236,0,0,1-2.647-1.107,4.611,4.611,0,0,1,0-5.511,3.778,3.778,0,0,1,5.246-.048,4.1,4.1,0,0,1,.915,2.815,3.973,3.973,0,0,1-.963,2.816A3.324,3.324,0,0,1,477.833,133.831Zm9.529,0a3.337,3.337,0,0,1-2.6-1.059,4.562,4.562,0,0,1,0-5.607,3.783,3.783,0,0,1,5.174-.024,4.016,4.016,0,0,1,.938,2.839,3.918,3.918,0,0,1-.986,2.816A3.344,3.344,0,0,1,487.362,133.831Z" transform="translate(0 -5.632)"/><path d="M512.486,110.825a.213.213,0,0,1-.242-.24V103.9c0-.128.081-.193.242-.193h7.17a6.138,6.138,0,0,1-1.636-1.54,8.642,8.642,0,0,1-1.179-2.19,7.286,7.286,0,0,1-.457-2.575,9.206,9.206,0,0,1,1.78-5.63,11.521,11.521,0,0,1,5.174-3.755,22.258,22.258,0,0,1,8.206-1.348H541.6v24.161ZM531.3,103.7h1.2V93.787h-.818a9.411,9.411,0,0,0-3.3.53,4.692,4.692,0,0,0-2.214,1.613,4.477,4.477,0,0,0-.794,2.718,4.333,4.333,0,0,0,.89,2.768,5.617,5.617,0,0,0,2.238,1.709A7.017,7.017,0,0,0,531.3,103.7Zm1.2-20.647a3.57,3.57,0,0,1-2.768-1.131,4.212,4.212,0,0,1-1.035-2.96,4.3,4.3,0,0,1,.988-3.008,4.141,4.141,0,0,1,5.558-.024,4.969,4.969,0,0,1-.024,6.04A3.6,3.6,0,0,1,532.507,83.055Z" transform="translate(0 -5.632)"/></g></g></svg>