<svg xmlns="http://www.w3.org/2000/svg" viewBox="0 0 543.528 158.867"><g id="Calque_2" data-name="Calque 2"><g id="Calque_1-2" data-name="Calque 1"><circle cx="71.092" cy="87.775" r="71.092" fill="#ef1f1e"/><path d="M133.86,55.156q-6.354,0-9.529-3.008t-3.178-8.5a15.994,15.994,0,0,1,1.59-7.171,12.081,12.081,0,0,1,4.5-4.741,12.955,12.955,0,0,1,6.762-1.708,12.552,12.552,0,0,1,3.32.433,11.048,11.048,0,0,1,6.186,4.283,16.411,16.411,0,0,1,2.261,4.332,15.2,15.2,0,0,1,.842,5.054q0,5.486-3.224,8.254T133.86,55.156ZM128.9,26.712a3.231,3.231,0,0,1-2.648-1.108,4.157,4.157,0,0,1-.914-2.743,4.14,4.14,0,0,1,.914-2.767,3.781,3.781,0,0,1,5.246-.048,4.106,4.106,0,0,1,.916,2.815,3.974,3.974,0,0,1-.963,2.816A3.32,3.32,0,0,1,128.9,26.712Zm4.813,21.129a3.286,3.286,0,0,0,2.984-1.2,5.634,5.634,0,0,0,.77-3.081,9.836,9.836,0,0,0-.481-3.128,6.037,6.037,0,0,0-1.347-2.334,2.69,2.69,0,0,0-1.975-.891,2.9,2.9,0,0,0-2.068.77,4.726,4.726,0,0,0-1.229,2.166,11.759,11.759,0,0,0-.408,3.273,5.832,5.832,0,0,0,.793,3.176A3.236,3.236,0,0,0,133.716,47.841Zm4.717-21.129a3.341,3.341,0,0,1-2.6-1.059,3.984,3.984,0,0,1-.963-2.792,3.966,3.966,0,0,1,.963-2.815,3.379,3.379,0,0,1,2.6-1.034,3.344,3.344,0,0,1,2.574,1.01,4.009,4.009,0,0,1,.939,2.839,3.919,3.919,0,0,1-.986,2.816A3.341,3.341,0,0,1,138.433,26.712Z" transform="translate(0 -5.632)"/><path d="M170.294,54.675V55.2a12.179,12.179,0,0,1-1.565,6.185,11.255,11.255,0,0,1-4.378,4.283,13.314,13.314,0,0,1-6.571,1.564,16.342,16.342,0,0,1-4.549-.674,18.711,18.711,0,0,1-5.076-2.5l3.225-6.834a16.326,16.326,0,0,0,2.695,1.2,7.514,7.514,0,0,0,2.358.433,4.492,4.492,0,0,0,3.32-1.3,4.208,4.208,0,0,0,1.3-3.08V30.514h9.24V47.552h6.449q.24,0,.24.192v6.691a.212.212,0,0,1-.24.24Z" transform="translate(0 -5.632)"/><path d="M176.261,54.675a.213.213,0,0,1-.241-.24V47.744c0-.128.081-.192.241-.192h5.775a14.741,14.741,0,0,1-1.226-2.623,9.969,9.969,0,0,1-.555-3.442,19.027,19.027,0,0,1,.555-4.331,12.322,12.322,0,0,1,2.044-4.428,25.98,25.98,0,0,1,5.006-2.166,17.133,17.133,0,0,1,5.053-.77,14.95,14.95,0,0,1,6.689,1.444,10.728,10.728,0,0,1,4.645,4.211,11.794,11.794,0,0,1,1.662,6.185,13.183,13.183,0,0,1-.531,3.73A13.612,13.612,0,0,1,203.645,49a11.765,11.765,0,0,1-5,4.092,18.1,18.1,0,0,1-7.8,1.588Zm12.994-12.417a12.6,12.6,0,0,0,.314,2.815,14.013,14.013,0,0,0,.793,2.479h1.444a5.178,5.178,0,0,0,2.382-.577,4.562,4.562,0,0,0,1.854-1.806,5.951,5.951,0,0,0,.723-3.056,4.929,4.929,0,0,0-1.18-3.513,3.739,3.739,0,0,0-2.816-1.251,5.249,5.249,0,0,0-1.467.216,4.163,4.163,0,0,0-1.42.746,10.406,10.406,0,0,0-.483,2.045A14.83,14.83,0,0,0,189.255,42.258Z" transform="translate(0 -5.632)"/><path d="M228.048,47.552q.24,0,.24.192v6.691a.212.212,0,0,1-.24.24H213.175V18.1h9.1V47.552Z" transform="translate(0 -5.632)"/><path d="M252.015,54.675a21.023,21.023,0,0,1-6.377-.842,22.511,22.511,0,0,1-4.067-1.661A24.341,24.341,0,0,1,237.19,54a16.591,16.591,0,0,1-4.859.674h-4.766a.212.212,0,0,1-.24-.24V47.744q0-.192.24-.192h2.889a18.038,18.038,0,0,0,2.936-.217,16.147,16.147,0,0,0,2.068-.457,8.81,8.81,0,0,1-1.42-1.468,21.639,21.639,0,0,1-1.322-1.949,36.965,36.965,0,0,1-2.432-5.054,26.434,26.434,0,0,1-1.515-5.343,23.021,23.021,0,0,1,4.548-2.623,27.693,27.693,0,0,1,5.077-1.66,22.485,22.485,0,0,1,4.861-.577,38.977,38.977,0,0,1,6.906.554,23.479,23.479,0,0,1,5.9,1.9,24.575,24.575,0,0,1-.891,6.714,20.464,20.464,0,0,1-2.5,5.632,14.03,14.03,0,0,1-3.779,3.971,8.941,8.941,0,0,0,1.4.384,13.347,13.347,0,0,0,2.6.193h4.572q.24,0,.24.192v6.691a.212.212,0,0,1-.24.24ZM242.63,43.7a14.549,14.549,0,0,0,3.2-3.537,9.6,9.6,0,0,0,1.467-4.5,13.057,13.057,0,0,0-1.66-.241q-1.035-.1-2.045-.1a14.5,14.5,0,0,0-2.334.193,15.814,15.814,0,0,0-2.047.457,3.664,3.664,0,0,0-1.154.505,23.753,23.753,0,0,0,1.154,2.839,14.439,14.439,0,0,0,1.541,2.528A8.893,8.893,0,0,0,242.63,43.7Zm0-19.54a3.572,3.572,0,0,1-2.768-1.131,4.217,4.217,0,0,1-1.035-2.96,4.311,4.311,0,0,1,.986-3.008,4.145,4.145,0,0,1,5.561-.024,4.22,4.22,0,0,1,1.01,3.032,4.18,4.18,0,0,1-1.035,3.008A3.588,3.588,0,0,1,242.63,24.161Z" transform="translate(0 -5.632)"/><path d="M256.972,54.675a.212.212,0,0,1-.241-.24V47.744c0-.128.08-.192.241-.192h5.775a14.81,14.81,0,0,1-1.227-2.623,9.994,9.994,0,0,1-.554-3.442,19.079,19.079,0,0,1,.554-4.331,12.341,12.341,0,0,1,2.045-4.428,25.98,25.98,0,0,1,5.006-2.166,17.133,17.133,0,0,1,5.053-.77,14.95,14.95,0,0,1,6.689,1.444,10.734,10.734,0,0,1,4.645,4.211,11.794,11.794,0,0,1,1.662,6.185,13.183,13.183,0,0,1-.531,3.73A13.612,13.612,0,0,1,284.356,49a11.762,11.762,0,0,1-5,4.092,18.1,18.1,0,0,1-7.8,1.588Zm12.994-12.417a12.6,12.6,0,0,0,.314,2.815,14.013,14.013,0,0,0,.793,2.479h1.444a5.181,5.181,0,0,0,2.382-.577,4.568,4.568,0,0,0,1.854-1.806,5.951,5.951,0,0,0,.723-3.056A4.929,4.929,0,0,0,276.3,38.6a3.74,3.74,0,0,0-2.817-1.251,5.248,5.248,0,0,0-1.466.216,4.163,4.163,0,0,0-1.42.746,10.406,10.406,0,0,0-.483,2.045A14.83,14.83,0,0,0,269.966,42.258Z" transform="translate(0 -5.632)"/><path d="M326.036,54.675V55.2a12.178,12.178,0,0,1-1.564,6.185,11.251,11.251,0,0,1-4.379,4.283,13.314,13.314,0,0,1-6.571,1.564,16.33,16.33,0,0,1-4.548-.674,18.716,18.716,0,0,1-5.077-2.5l3.225-6.834a16.326,16.326,0,0,0,2.695,1.2,7.524,7.524,0,0,0,2.358.433,4.492,4.492,0,0,0,3.32-1.3,4.208,4.208,0,0,0,1.3-3.08V30.514h9.24V47.552h6.449c.16,0,.241.064.241.192v6.691a.213.213,0,0,1-.241.24Z" transform="translate(0 -5.632)"/><path d="M332.005,54.675a.214.214,0,0,1-.242-.24V47.744c0-.128.082-.192.242-.192h5.775V30.514h9.1V47.552h6.256c.16,0,.242.064.242.192v6.691a.214.214,0,0,1-.242.24Zm10.2,12.706a3.342,3.342,0,0,1-2.6-1.059,4.06,4.06,0,0,1-.963-2.84,4.286,4.286,0,0,1,.891-2.815,3.258,3.258,0,0,1,2.672-1.083,3.326,3.326,0,0,1,2.6,1.011,4.161,4.161,0,0,1,.916,2.887,4.053,4.053,0,0,1-.963,2.864A3.32,3.32,0,0,1,342.208,67.381Z" transform="translate(0 -5.632)"/><path d="M352.651,54.675a.214.214,0,0,1-.242-.24V47.744c0-.128.082-.192.242-.192h17.856V40.524a4.685,4.685,0,0,0-1.877-3.874,7.828,7.828,0,0,0-4.957-1.467h-8.184V29.118q.821-1.684,1.735-3.177A29.1,29.1,0,0,1,359.2,23.1a29.537,29.537,0,0,1,6.3-5.632,39.2,39.2,0,0,1,8.615-4.236l3.369,8.327a34.1,34.1,0,0,0-3.851,1.155,25.748,25.748,0,0,0-3.416,1.54,21.664,21.664,0,0,0-2.84,1.829,14.072,14.072,0,0,0-2.117,1.974h.24q7.218,0,10.732,2.791t3.514,8.664v15.16Z" transform="translate(0 -5.632)"/><path d="M386.774,14.343l2.84-.53a4.266,4.266,0,0,1-1.588-1.323,3.363,3.363,0,0,1-.674-2.094,4.316,4.316,0,0,1,1.516-3.489,6.035,6.035,0,0,1,4.018-1.275,8.5,8.5,0,0,1,4.476,1.106l-1.107,2.84a5.6,5.6,0,0,0-1.371-.481,6.7,6.7,0,0,0-1.371-.145,2.043,2.043,0,0,0-1.614.626,2.306,2.306,0,0,0-.552,1.588,1.856,1.856,0,0,0,.457,1.252,2.608,2.608,0,0,0,1.179.77l.577-.1q1.107-.192,1.781-.265t1.156-.121l1.01-.1v3.562q-.867.048-2.311.192t-3.056.337q-1.612.193-3.055.385t-2.311.337Zm1.395,6.641h9.193V54.675h-9.193Z" transform="translate(0 -5.632)"/><path d="M475.765,54.675a8.348,8.348,0,0,1-3.875-1.011,12.374,12.374,0,0,1-3.538-2.791,8.511,8.511,0,0,1-3.681,2.911,13.248,13.248,0,0,1-5.029.891h-5.778q-.72,6.065-4.691,9.024t-10.9,2.96h-1.058a21.032,21.032,0,0,1-4.524-.457,16.94,16.94,0,0,1-3.753-1.276A12.316,12.316,0,0,1,423.52,59.8a15.879,15.879,0,0,1-1.853-7.822,19.507,19.507,0,0,1,.746-5.27,20.517,20.517,0,0,1,2.045-4.885h7.894q-.723,2.889-1.228,5.488a20.085,20.085,0,0,0-.408,4.715,8.347,8.347,0,0,0,1.828,5.006,5.965,5.965,0,0,0,4.91,2.07h.625a5.983,5.983,0,0,0,5.029-2.07,8.849,8.849,0,0,0,1.614-5.583V34.269h9.191V47.552h3.369q2.5,0,3.465-1.228t.963-4.355v-7.7h9.24v8.518c0,.417-.015.835-.047,1.251a9.973,9.973,0,0,1-.193,1.3,9.944,9.944,0,0,0,2.238,1.708,5.653,5.653,0,0,0,2.574.506h3.034V30.514h9.24V47.552h6.113q.24,0,.24.192v6.691a.212.212,0,0,1-.24.24ZM460.989,26.664a3.237,3.237,0,0,1-2.648-1.107,4.164,4.164,0,0,1-.914-2.744,4.138,4.138,0,0,1,.914-2.767,3.27,3.27,0,0,1,2.648-1.083,3.339,3.339,0,0,1,2.574,1.011,4.018,4.018,0,0,1,.938,2.839,3.91,3.91,0,0,1-.986,2.816A3.339,3.339,0,0,1,460.989,26.664Zm5.053-8.183a3.224,3.224,0,0,1-3.32-3.512,3.328,3.328,0,0,1,.986-2.672,3.479,3.479,0,0,1,2.334-.842,3.094,3.094,0,0,1,2.43.939,3.714,3.714,0,0,1,.843,2.575,3.856,3.856,0,0,1-.843,2.43A2.892,2.892,0,0,1,466.042,18.481ZM471,26.664a3.335,3.335,0,0,1-2.6-1.06,3.992,3.992,0,0,1-.961-2.791A4.1,4.1,0,0,1,468.352,20a3.782,3.782,0,0,1,5.174-.024,3.9,3.9,0,0,1,.987,2.839,3.915,3.915,0,0,1-.987,2.816A3.338,3.338,0,0,1,471,26.664Z" transform="translate(0 -5.632)"/><path d="M493.427,54.675a.213.213,0,0,1-.241-.24V47.744c0-.128.081-.192.241-.192h7.218V30.514h9.1V47.552h7.219q.24,0,.24.192v6.691a.212.212,0,0,1-.24.24Zm6.4,12.177a3.236,3.236,0,0,1-2.646-1.108,4.611,4.611,0,0,1,0-5.511,3.777,3.777,0,0,1,5.246-.047A4.1,4.1,0,0,1,503.341,63a3.969,3.969,0,0,1-.963,2.815A3.315,3.315,0,0,1,499.827,66.852Zm9.531,0a3.339,3.339,0,0,1-2.6-1.059,4.562,4.562,0,0,1,0-5.607,3.781,3.781,0,0,1,5.174-.025A4.019,4.019,0,0,1,512.87,63a3.909,3.909,0,0,1-.986,2.815A3.338,3.338,0,0,1,509.358,66.852Z" transform="translate(0 -5.632)"/><path d="M516.479,54.675a.212.212,0,0,1-.24-.24V47.744q0-.192.24-.192h6.594a4,4,0,0,1-1.564-1.228,8.161,8.161,0,0,1-1.854-5.221,10.076,10.076,0,0,1,1.735-5.848,11.5,11.5,0,0,1,5-3.971,19.207,19.207,0,0,1,7.8-1.444,22.453,22.453,0,0,1,4.957.554,17.165,17.165,0,0,1,4.043,1.372l-2.5,6.978a18.227,18.227,0,0,0-3.273-1.323,11.593,11.593,0,0,0-3.225-.458,5.983,5.983,0,0,0-2.791.626,4.578,4.578,0,0,0-1.877,1.781,5.312,5.312,0,0,0,2.239,7.411,7.634,7.634,0,0,0,3.586.771h8.181v7.123Z" transform="translate(0 -5.632)"/><path d="M318.962,110.825a9.665,9.665,0,0,1-7.219-2.791,10.373,10.373,0,0,1-2.744-7.6,18.075,18.075,0,0,1,.24-2.816,22.134,22.134,0,0,1,.651-2.888,11.185,11.185,0,0,1,.89-2.238h8.182a30.37,30.37,0,0,0-.529,3.08,27.47,27.47,0,0,0-.194,3.322,4.962,4.962,0,0,0,1.229,3.44,3.98,3.98,0,0,0,3.1,1.372h14.584V74.247h9.192V103.7h6.16c.16,0,.242.065.242.193v6.69a.214.214,0,0,1-.242.24Zm3.658-17.518,3.031-.482A4.219,4.219,0,0,1,323.9,91.5a3.288,3.288,0,0,1-.7-2.093,4.237,4.237,0,0,1,1.469-3.321,5.925,5.925,0,0,1,4.066-1.3,8.428,8.428,0,0,1,2.455.337,11.686,11.686,0,0,1,2.022.818l-1.154,2.648a6.66,6.66,0,0,0-2.7-.674,2,2,0,0,0-1.636.7,2.336,2.336,0,0,0-.578,1.517,2.181,2.181,0,0,0,.337,1.2,2.661,2.661,0,0,0,1.106.914l.914-.143c.674-.1,1.221-.177,1.637-.242s.8-.112,1.131-.144.7-.064,1.083-.1v3.32c-.546.033-1.05.073-1.515.12s-.971.106-1.518.169-1.25.145-2.117.241q-.529.05-1.9.241t-3.682.529Z" transform="translate(0 -5.632)"/><path d="M352.026,110.825a.212.212,0,0,1-.24-.24V103.9c0-.128.08-.193.24-.193h7.893V86.664h9.1v24.161Zm6.979-28.011a3.239,3.239,0,0,1-2.647-1.107,4.611,4.611,0,0,1,0-5.511,3.778,3.778,0,0,1,5.246-.048,4.1,4.1,0,0,1,.915,2.816,3.967,3.967,0,0,1-.963,2.815A3.318,3.318,0,0,1,359.005,82.814Zm9.529,0a3.333,3.333,0,0,1-2.6-1.059,4.566,4.566,0,0,1,0-5.607,3.379,3.379,0,0,1,2.6-1.035,3.344,3.344,0,0,1,2.576,1.011,4.021,4.021,0,0,1,.938,2.84,3.913,3.913,0,0,1-.987,2.815A3.334,3.334,0,0,1,368.534,82.814Z" transform="translate(0 -5.632)"/><path d="M392.358,103.7c.161,0,.241.065.241.193v6.69a.212.212,0,0,1-.241.24H377.485V74.247h9.1V103.7Z" transform="translate(0 -5.632)"/><path d="M391.876,110.825a.212.212,0,0,1-.24-.24V103.9c0-.128.08-.193.24-.193H399.1V86.664h9.1V103.7h7.219c.16,0,.24.065.24.193v6.69a.212.212,0,0,1-.24.24Zm6.4,12.177a3.235,3.235,0,0,1-2.646-1.107,4.611,4.611,0,0,1,0-5.511,3.778,3.778,0,0,1,5.246-.048,4.1,4.1,0,0,1,.914,2.815,3.969,3.969,0,0,1-.963,2.816A3.318,3.318,0,0,1,398.276,123Zm9.532,0a3.342,3.342,0,0,1-2.6-1.059,4.562,4.562,0,0,1,0-5.607,3.377,3.377,0,0,1,2.6-1.035,3.341,3.341,0,0,1,2.574,1.011,4.016,4.016,0,0,1,.937,2.839,3.914,3.914,0,0,1-.986,2.816A3.34,3.34,0,0,1,407.808,123Z" transform="translate(0 -5.632)"/><path d="M414.931,110.825a.214.214,0,0,1-.243-.24V103.9c0-.128.082-.193.243-.193h18.24a6.92,6.92,0,0,1-1.371-2.286,23.405,23.405,0,0,1-.94-3.008,7.931,7.931,0,0,0-1.275-3.129,4.519,4.519,0,0,0-1.973-1.54,6.876,6.876,0,0,0-2.478-.432,10.459,10.459,0,0,0-2.985.457,13.9,13.9,0,0,0-3.033,1.323l-2.5-6.738a47.447,47.447,0,0,1,5.03-1.925,19.918,19.918,0,0,1,6.185-.914,17.164,17.164,0,0,1,1.805.095,17.59,17.59,0,0,1,1.949.337,9.466,9.466,0,0,1,5.148,3.2,13.646,13.646,0,0,1,2.745,6.424,33.048,33.048,0,0,0,.818,3.322,18.842,18.842,0,0,0,1.082,2.815,9.119,9.119,0,0,0,1.228,1.949v7.171Z" transform="translate(0 -5.632)"/><path d="M476.1,122.376a11.071,11.071,0,0,1-5.9-1.492,10.039,10.039,0,0,1-3.7-3.9,10.833,10.833,0,0,1-1.275-5.149,31.338,31.338,0,0,1,.384-4.765,43.861,43.861,0,0,1,1.059-4.957h8.086a36.918,36.918,0,0,0-.651,3.754,29.3,29.3,0,0,0-.214,3.369,9.562,9.562,0,0,0,.457,3.056,4.1,4.1,0,0,0,1.634,2.166,5.865,5.865,0,0,0,3.3.794h8.76a19.237,19.237,0,0,0,2.406-.145,7.315,7.315,0,0,0,1.9-.457c.5-.209.746-.489.746-.841a1.3,1.3,0,0,0-.7-1.083,9.313,9.313,0,0,0-2.334-.939,13.279,13.279,0,0,1-3.37-1.42,8.389,8.389,0,0,1-2.166-1.877,6.766,6.766,0,0,1-1.177-2.19,7.789,7.789,0,0,1-.362-2.359,11.026,11.026,0,0,1,.362-2.887,9.535,9.535,0,0,1,1.322-2.791,15.738,15.738,0,0,1,3.3-3.586A18.978,18.978,0,0,1,492.1,92.1a9.572,9.572,0,0,1,3.873-.963,7.554,7.554,0,0,1,1.831.216,8.587,8.587,0,0,1,1.492.5,8.885,8.885,0,0,1,3.224,2.431q1.3,1.564,2.936,3.874,1.058,1.493,1.9,2.647a10.763,10.763,0,0,0,1.276,1.54,4.146,4.146,0,0,0,2.07,1.131,10.523,10.523,0,0,0,2.021.217h.241c.16,0,.24.065.24.193v6.69a.212.212,0,0,1-.24.24h-.241a32.859,32.859,0,0,1-4.187-.217,7.468,7.468,0,0,1-2.768-.866,10.515,10.515,0,0,1-2.287-1.852,15.49,15.49,0,0,1-1.082-1.372q-.6-.842-1.564-2.19-1.057-1.539-1.949-2.6a10.756,10.756,0,0,0-1.516-1.541,5.9,5.9,0,0,0-1.107-.769,2.565,2.565,0,0,0-1.155-.241,2.672,2.672,0,0,0-1.131.313,6,6,0,0,0-1.252.818,5.44,5.44,0,0,0-.986,1.059,1.889,1.889,0,0,0-.385,1.083,2.017,2.017,0,0,0,.385,1.179,3.866,3.866,0,0,0,1.154,1.035,12.218,12.218,0,0,0,1.83.914q1.442.578,2.5,1.108a15.584,15.584,0,0,1,1.829,1.058,6.84,6.84,0,0,1,2.31,2.551,7.859,7.859,0,0,1-3.008,9.842q-3.683,2.238-11.093,2.238Zm1.732,11.455a3.239,3.239,0,0,1-2.647-1.107,4.611,4.611,0,0,1,0-5.511,3.78,3.78,0,0,1,5.247-.048,4.1,4.1,0,0,1,.914,2.815,3.973,3.973,0,0,1-.963,2.816A3.324,3.324,0,0,1,477.833,133.831Zm9.529,0a3.333,3.333,0,0,1-2.6-1.059,4.562,4.562,0,0,1,0-5.607,3.781,3.781,0,0,1,5.173-.024,4.016,4.016,0,0,1,.938,2.839,3.914,3.914,0,0,1-.986,2.816A3.344,3.344,0,0,1,487.362,133.831Z" transform="translate(0 -5.632)"/><path d="M512.485,110.825a.212.212,0,0,1-.24-.24V103.9c0-.128.08-.193.24-.193h7.172a6.126,6.126,0,0,1-1.637-1.54,8.61,8.61,0,0,1-1.179-2.19,7.308,7.308,0,0,1-.457-2.575,9.2,9.2,0,0,1,1.781-5.63,11.515,11.515,0,0,1,5.174-3.755,22.252,22.252,0,0,1,8.2-1.348H541.6v24.161ZM531.3,103.7h1.2V93.787h-.819a9.413,9.413,0,0,0-3.3.53,4.684,4.684,0,0,0-2.213,1.613,4.471,4.471,0,0,0-.795,2.718,4.339,4.339,0,0,0,.89,2.768,5.627,5.627,0,0,0,2.239,1.709A7.012,7.012,0,0,0,531.3,103.7Zm1.2-20.647a3.57,3.57,0,0,1-2.768-1.131,4.217,4.217,0,0,1-1.035-2.96,4.3,4.3,0,0,1,.988-3.008,4.142,4.142,0,0,1,5.559-.024,4.971,4.971,0,0,1-.025,6.04A3.592,3.592,0,0,1,532.507,83.055Z" transform="translate(0 -5.632)"/></g></g></svg>