<?xml version="1.0" encoding="utf-8"?>
<!-- Generator: Adobe Illustrator 25.3.1, SVG Export Plug-In . SVG Version: 6.00 Build 0)  -->
<svg version="1.1" id="Calque_1" xmlns="http://www.w3.org/2000/svg" xmlns:xlink="http://www.w3.org/1999/xlink" x="0px" y="0px"
	 viewBox="0 0 513.9 320.7" style="enable-background:new 0 0 513.9 320.7;" xml:space="preserve">
<style type="text/css">
	.st0{fill:#EF1F1E;}
	.st1{enable-background:new    ;}
</style>
<g id="Calque_2_1_">
	<g id="Calque_1-2">
		<circle class="st0" cx="406.7" cy="213.5" r="107.2"/>
		<g class="st1">
			<path d="M14.1,42.6L0.6,6.6h9.7l10.2,29.1h-4.2L26.6,6.6h9.5L22.4,42.6H14.1z"/>
			<path d="M39.9,42.6V6.6H49v36.1H39.9z"/>
			<path d="M66.4,42.6L52.8,6.6h9.7l10.2,29.1h-4.2L78.8,6.6h9.5L74.6,42.6H66.4z"/>
			<path d="M92.1,42.6V6.6h9.1v36.1H92.1z M99.4,14.2V6.6h19.2v7.7H99.4z M99.4,28v-7.5h17.7V28H99.4z M99.4,42.6v-7.7h19.5v7.7
				H99.4z"/>
			<path d="M122.2,36.3l17.4-23.4h11l-17.4,23.4H122.2z M122.2,42.6v-6.3l5.4-1.3h22.5v7.6H122.2z M123.2,14.2V6.6h27.5v6.3
				l-5.5,1.3H123.2z"/>
			<path d="M164.8,42.6V6.6h9.1v36.1H164.8z M172,42.6v-7.8h17.4v7.8H172z"/>
			<path d="M190.1,42.6l14-36.1h8.8l13.8,36.1h-9.5l-10.4-30.3h3.3l-10.7,30.3H190.1z M198.6,36.3v-7.2h19.9v7.2H198.6z"/>
			<path d="M238.4,42.6V6.6h9.1v36.1H238.4z M245.7,29.7v-6.8h7.1c0.9,0,1.7-0.2,2.4-0.5c0.7-0.4,1.3-0.9,1.8-1.6
				c0.4-0.7,0.7-1.6,0.7-2.6s-0.2-1.9-0.7-2.7c-0.4-0.7-1-1.3-1.8-1.6c-0.7-0.4-1.5-0.5-2.4-0.5h-7.1V6.6h8.7c2.3,0,4.4,0.5,6.3,1.4
				c1.9,0.9,3.3,2.3,4.4,4c1.1,1.7,1.6,3.8,1.6,6.2c0,2.4-0.5,4.4-1.6,6.2c-1.1,1.7-2.6,3.1-4.4,4c-1.9,0.9-3.9,1.4-6.3,1.4H245.7z"
				/>
			<path d="M270.7,42.6V6.6h9.1v36.1H270.7z M277.9,42.6v-7.8h17.4v7.8H277.9z"/>
			<path d="M313.1,43.2c-3.1,0-5.7-0.6-8.1-1.9c-2.3-1.3-4.1-3-5.4-5.3c-1.3-2.3-1.9-4.8-1.9-7.7V6.6h9.1v22.3
				c0,1.3,0.3,2.4,0.8,3.3c0.6,0.9,1.3,1.6,2.3,2.1c1,0.5,2,0.7,3.2,0.7c1.2,0,2.3-0.2,3.2-0.7c0.9-0.5,1.6-1.2,2.2-2.1
				c0.5-0.9,0.8-2,0.8-3.3V6.6h9.2v21.7c0,2.9-0.6,5.5-1.9,7.7c-1.3,2.3-3.1,4-5.4,5.3C318.9,42.5,316.2,43.2,313.1,43.2z"/>
			<path d="M345.2,43.2c-3,0-5.6-0.5-7.9-1.4c-2.2-0.9-4.2-2.4-6.1-4.3l5.7-5.8c1.3,1.3,2.6,2.3,4,3s3,1,4.8,1
				c1.5,0,2.7-0.3,3.5-0.8c0.8-0.5,1.2-1.2,1.2-2.2c0-0.8-0.3-1.6-0.9-2.1c-0.6-0.6-1.4-1.1-2.4-1.5s-2.1-0.8-3.3-1.2
				c-1.2-0.4-2.4-0.9-3.6-1.4s-2.3-1.2-3.3-2.1s-1.8-1.8-2.4-3.1c-0.6-1.2-0.9-2.7-0.9-4.5c0-2.3,0.6-4.3,1.7-5.9
				c1.1-1.6,2.6-2.9,4.6-3.8c2-0.9,4.3-1.3,6.9-1.3c2.6,0,5,0.4,7.2,1.3c2.2,0.9,4,2.1,5.4,3.7l-5.8,5.7c-1.1-1.1-2.2-1.9-3.3-2.4
				c-1.1-0.5-2.3-0.8-3.7-0.8c-1.3,0-2.2,0.2-2.9,0.7s-1.1,1.1-1.1,1.9c0,0.8,0.3,1.5,0.9,2c0.6,0.5,1.4,1,2.4,1.3
				c1,0.4,2.1,0.8,3.3,1.2c1.2,0.4,2.4,0.9,3.6,1.4c1.2,0.5,2.3,1.2,3.3,2.1c1,0.8,1.8,1.9,2.4,3.2c0.6,1.3,0.9,2.8,0.9,4.7
				c0,3.6-1.3,6.4-3.8,8.3S349.7,43.2,345.2,43.2z"/>
		</g>
		<g class="st1">
			<path d="M20.6,88.7c-2.7,0-5.3-0.5-7.6-1.4c-2.3-0.9-4.4-2.2-6.1-3.9c-1.7-1.7-3.1-3.7-4.1-5.9c-1-2.3-1.4-4.7-1.4-7.3
				c0-2.7,0.5-5.1,1.5-7.4c1-2.3,2.4-4.2,4.2-5.9c1.8-1.7,3.9-3,6.3-3.9c2.4-0.9,4.9-1.4,7.7-1.4c3.2,0,6.1,0.6,8.7,1.7
				c2.6,1.1,4.7,2.7,6.4,4.7l-6.1,6.1c-1.2-1.5-2.6-2.6-4-3.3c-1.5-0.7-3.2-1.1-5.1-1.1c-2,0-3.7,0.4-5.3,1.3
				c-1.5,0.9-2.8,2.1-3.7,3.6c-0.9,1.6-1.4,3.4-1.4,5.5c0,2.1,0.4,3.9,1.3,5.5c0.9,1.6,2.1,2.8,3.6,3.7c1.5,0.9,3.2,1.3,5.2,1.3
				c2,0,3.6-0.4,5-1.1s2.4-1.8,3.2-3.3s1.1-3.1,1.1-5.1l6.2,4l-16.4-0.4v-7.4h19.4v1.4c0,4.3-0.8,8-2.3,10.9c-1.6,3-3.7,5.2-6.5,6.8
				C27.5,87.9,24.3,88.7,20.6,88.7z"/>
			<path d="M43.4,88.1V52h9.1v36.1H43.4z M50.6,73.5V67h6.9c1.5,0,2.6-0.4,3.4-1.1c0.8-0.7,1.2-1.7,1.2-3c0-1.2-0.4-2.2-1.2-3
				c-0.8-0.8-1.9-1.1-3.4-1.1h-6.9V52h8.1c2.4,0,4.6,0.5,6.4,1.4c1.8,0.9,3.3,2.2,4.3,3.8c1.1,1.6,1.6,3.5,1.6,5.6s-0.5,4-1.6,5.6
				s-2.6,2.9-4.4,3.8c-1.9,0.9-4.1,1.3-6.7,1.3H50.6z M63,88.1L52.5,72.6l8.2-2l12.8,17.4H63z"/>
			<path d="M72.7,88.1l14-36.1h8.8l13.8,36.1h-9.5L89.3,57.8h3.3L82,88.1H72.7z M81.2,81.8v-7.2H101v7.2H81.2z"/>
			<path d="M112.6,88.1V52h6.4l2.7,7.4v28.7H112.6z M137.5,88.1l-21.1-26.7L119,52l21.1,26.7L137.5,88.1z M137.5,88.1l-2.3-7.6V52
				h9.1v36.1H137.5z"/>
			<path d="M150.7,88.1V52h9.1v36.1H150.7z M156.8,88.1v-7.8h8.6c2,0,3.8-0.4,5.3-1.2c1.5-0.8,2.7-1.9,3.5-3.5
				c0.8-1.5,1.2-3.4,1.2-5.6c0-2.2-0.4-4-1.2-5.5c-0.8-1.5-2-2.7-3.5-3.4c-1.5-0.8-3.3-1.2-5.3-1.2h-9.1V52h9.1
				c2.8,0,5.3,0.4,7.7,1.3c2.3,0.9,4.4,2.1,6.1,3.7c1.7,1.6,3.1,3.5,4,5.7c1,2.2,1.4,4.6,1.4,7.3c0,2.7-0.5,5.2-1.4,7.4
				c-1,2.2-2.3,4.1-4,5.7s-3.8,2.8-6.1,3.7c-2.3,0.9-4.9,1.3-7.6,1.3H156.8z"/>
			<path d="M189.4,88.1V52h9.1v36.1H189.4z M196.6,59.7V52h19.2v7.7H196.6z M196.6,73.4V66h17.7v7.5H196.6z M196.6,88.1v-7.7h19.5
				v7.7H196.6z"/>
			<path d="M226.6,88.1l14-36.1h8.8l13.8,36.1h-9.5l-10.4-30.3h3.3l-10.7,30.3H226.6z M235.1,81.8v-7.2H255v7.2H235.1z"/>
			<path d="M273.4,88.1L259.8,52h9.7l10.2,29.1h-4.2L285.8,52h9.5l-13.7,36.1H273.4z"/>
			<path d="M299.2,88.1V52h9.1v36.1H299.2z M306.4,59.7V52h19.2v7.7H306.4z M306.4,73.4V66h17.7v7.5H306.4z M306.4,88.1v-7.7h19.5
				v7.7H306.4z"/>
			<path d="M331,88.1V52h6.4l2.7,7.4v28.7H331z M355.9,88.1l-21.1-26.7l2.5-9.3l21.1,26.7L355.9,88.1z M355.9,88.1l-2.3-7.6V52h9.1
				v36.1H355.9z"/>
			<path d="M366.8,59.9V52H398v7.8H366.8z M377.8,88.1V52.3h9.1v35.8H377.8z"/>
			<path d="M416.8,88.7c-3.1,0-5.7-0.6-8.1-1.9c-2.3-1.3-4.1-3-5.4-5.3c-1.3-2.3-1.9-4.8-1.9-7.7V52h9.1v22.3c0,1.3,0.3,2.4,0.8,3.3
				c0.6,0.9,1.3,1.6,2.3,2.1c1,0.5,2,0.7,3.2,0.7c1.2,0,2.3-0.2,3.2-0.7c0.9-0.5,1.6-1.2,2.2-2.1c0.5-0.9,0.8-2,0.8-3.3V52h9.2v21.7
				c0,2.9-0.6,5.5-1.9,7.7c-1.3,2.3-3.1,4-5.4,5.3C422.6,88,419.9,88.7,416.8,88.7z"/>
			<path d="M438,88.1V52h9.1v36.1H438z M445.2,73.5V67h6.9c1.5,0,2.6-0.4,3.4-1.1c0.8-0.7,1.2-1.7,1.2-3c0-1.2-0.4-2.2-1.2-3
				c-0.8-0.8-1.9-1.1-3.4-1.1h-6.9V52h8.1c2.4,0,4.6,0.5,6.4,1.4c1.8,0.9,3.3,2.2,4.3,3.8c1,1.6,1.6,3.5,1.6,5.6s-0.5,4-1.6,5.6
				c-1.1,1.6-2.6,2.9-4.5,3.8c-1.9,0.9-4.1,1.3-6.7,1.3H445.2z M457.5,88.1L447,72.6l8.2-2L468,88.1H457.5z"/>
			<path d="M471,88.1V52h9.1v36.1H471z M478.2,59.7V52h19.2v7.7H478.2z M478.2,73.4V66h17.7v7.5H478.2z M478.2,88.1v-7.7h19.5v7.7
				H478.2z"/>
		</g>
		<g class="st1">
			<path d="M3.2,133.6V97.5h9.1v36.1H3.2z M9.4,133.6v-7.8H18c2,0,3.8-0.4,5.3-1.2c1.5-0.8,2.7-1.9,3.5-3.5c0.8-1.5,1.2-3.4,1.2-5.6
				c0-2.2-0.4-4-1.2-5.5c-0.8-1.5-2-2.7-3.5-3.4c-1.5-0.8-3.3-1.2-5.3-1.2H9v-7.8h9.1c2.8,0,5.3,0.4,7.7,1.3
				c2.3,0.9,4.4,2.1,6.1,3.7c1.7,1.6,3.1,3.5,4,5.7c1,2.2,1.4,4.6,1.4,7.3c0,2.7-0.5,5.2-1.4,7.4c-1,2.2-2.3,4.1-4,5.7
				s-3.8,2.8-6.1,3.7c-2.3,0.9-4.9,1.3-7.6,1.3H9.4z"/>
			<path d="M41.9,133.6V97.5H51v36.1H41.9z M49.1,105.2v-7.7h19.2v7.7H49.1z M49.1,118.9v-7.5h17.7v7.5H49.1z M49.1,133.6v-7.7h19.5
				v7.7H49.1z"/>
			<path d="M94.1,133.6L80.6,97.5h9.7l10.2,29.1h-4.2l10.3-29.1h9.5l-13.7,36.1H94.1z"/>
			<path d="M136.2,134.2c-2.8,0-5.3-0.5-7.7-1.4c-2.3-0.9-4.4-2.3-6.1-4c-1.7-1.7-3.1-3.7-4.1-6c-1-2.3-1.5-4.8-1.5-7.4
				s0.5-5.1,1.4-7.3c1-2.3,2.3-4.2,4-5.9s3.8-3,6.1-3.9c2.3-0.9,4.9-1.4,7.7-1.4c2.8,0,5.3,0.5,7.7,1.4c2.3,0.9,4.4,2.2,6.1,3.9
				s3.1,3.7,4,5.9c1,2.3,1.4,4.7,1.4,7.4s-0.5,5.1-1.4,7.4s-2.3,4.3-4,6c-1.7,1.7-3.8,3-6.1,4C141.5,133.8,138.9,134.2,136.2,134.2z
				 M136.1,126.1c2,0,3.8-0.4,5.3-1.3c1.5-0.9,2.6-2.1,3.5-3.7c0.8-1.6,1.2-3.5,1.2-5.6c0-1.6-0.2-3-0.7-4.3c-0.5-1.3-1.1-2.4-2-3.3
				c-0.9-0.9-1.9-1.7-3.2-2.2c-1.2-0.5-2.6-0.8-4.1-0.8c-2,0-3.8,0.4-5.3,1.3c-1.5,0.9-2.6,2.1-3.5,3.7c-0.8,1.6-1.2,3.4-1.2,5.5
				c0,1.6,0.2,3.1,0.7,4.4c0.5,1.3,1.1,2.4,2,3.4c0.9,0.9,1.9,1.6,3.2,2.1C133.2,125.8,134.6,126.1,136.1,126.1z"/>
			<path d="M156,105.3v-7.8h31.2v7.8H156z M167.1,133.6V97.8h9.1v35.8H167.1z"/>
			<path d="M191.3,133.6V97.5h9.1v36.1H191.3z M198.5,119v-6.5h6.9c1.5,0,2.6-0.4,3.4-1.1c0.8-0.7,1.2-1.7,1.2-3
				c0-1.2-0.4-2.2-1.2-3c-0.8-0.8-1.9-1.1-3.4-1.1h-6.9v-6.8h8.1c2.4,0,4.6,0.5,6.4,1.4c1.8,0.9,3.3,2.2,4.3,3.8
				c1.1,1.6,1.6,3.5,1.6,5.6s-0.5,4-1.6,5.6s-2.6,2.9-4.4,3.8c-1.9,0.9-4.1,1.3-6.7,1.3H198.5z M210.8,133.6l-10.5-15.5l8.2-2
				l12.8,17.4H210.8z"/>
			<path d="M224.3,133.6V97.5h9.1v36.1H224.3z M231.5,105.2v-7.7h19.2v7.7H231.5z M231.5,118.9v-7.5h17.7v7.5H231.5z M231.5,133.6
				v-7.7h19.5v7.7H231.5z"/>
			<path d="M276.5,133.6L263,97.5h9.7l10.2,29.1h-4.2L289,97.5h9.5l-13.7,36.1H276.5z"/>
			<path d="M302.3,133.6V97.5h9.1v36.1H302.3z"/>
			<path d="M317.8,133.6V97.5h9.1v36.1H317.8z M325,105.2v-7.7h19.2v7.7H325z M325,118.9v-7.5h17.7v7.5H325z M325,133.6v-7.7h19.5
				v7.7H325z"/>
		</g>
	</g>
</g>
</svg>
