<?xml version="1.0" encoding="utf-8"?>
<!-- Generator: Adobe Illustrator 25.3.1, SVG Export Plug-In . SVG Version: 6.00 Build 0)  -->
<svg version="1.1" id="Calque_1" xmlns="http://www.w3.org/2000/svg" xmlns:xlink="http://www.w3.org/1999/xlink" x="0px" y="0px"
	 viewBox="0 0 553.1 189.1" style="enable-background:new 0 0 553.1 189.1;" xml:space="preserve">
<style type="text/css">
	.st0{fill:#EF1F1E;}
	.st1{enable-background:new    ;}
</style>
<g id="Calque_2_1_">
	<g id="Calque_1-2">
		<circle class="st0" cx="481.1" cy="117.1" r="72"/>
		<g class="st1">
			<path d="M12.1,36.5L0.5,5.6h8.3l8.7,25h-3.6l8.8-25h8.1L19.2,36.5H12.1z"/>
			<path d="M34.2,36.5V5.6H42v30.9H34.2z"/>
			<path d="M56.9,36.5L45.2,5.6h8.3l8.7,25h-3.6l8.8-25h8.1L63.9,36.5H56.9z"/>
			<path d="M79,36.5V5.6h7.8v30.9H79z M85.1,12.2V5.6h16.5v6.6H85.1z M85.1,24v-6.4h15.2V24H85.1z M85.1,36.5v-6.6h16.7v6.6H85.1z"
				/>
			<path d="M104.8,31.1L119.7,11h9.4l-14.9,20.1H104.8z M104.8,36.5v-5.4l4.7-1.1h19.3v6.5H104.8z M105.5,12.2V5.6h23.5V11l-4.7,1.1
				H105.5z"/>
			<path d="M141.2,36.5V5.6h7.8v30.9H141.2z M147.4,36.5v-6.7h14.9v6.7H147.4z"/>
			<path d="M162.9,36.5l12-30.9h7.5l11.9,30.9h-8.1l-8.9-26h2.8l-9.2,26H162.9z M170.2,31.1v-6.2h17v6.2H170.2z"/>
			<path d="M204.3,36.5V5.6h7.8v30.9H204.3z M210.5,25.4v-5.8h6.1c0.8,0,1.4-0.2,2.1-0.5c0.6-0.3,1.1-0.8,1.5-1.4
				c0.4-0.6,0.6-1.4,0.6-2.3s-0.2-1.7-0.6-2.3c-0.4-0.6-0.9-1.1-1.5-1.4c-0.6-0.3-1.3-0.5-2.1-0.5h-6.1V5.6h7.5c2,0,3.8,0.4,5.4,1.2
				c1.6,0.8,2.9,1.9,3.8,3.4s1.4,3.2,1.4,5.3c0,2-0.5,3.8-1.4,5.3c-0.9,1.5-2.2,2.6-3.8,3.4c-1.6,0.8-3.4,1.2-5.4,1.2H210.5z"/>
			<path d="M231.9,36.5V5.6h7.8v30.9H231.9z M238.1,36.5v-6.7H253v6.7H238.1z"/>
			<path d="M268.3,37c-2.6,0-4.9-0.5-6.9-1.6c-2-1.1-3.5-2.6-4.6-4.6c-1.1-1.9-1.7-4.2-1.7-6.6V5.6h7.8v19.1c0,1.1,0.2,2.1,0.7,2.9
				c0.5,0.8,1.1,1.4,2,1.8c0.8,0.4,1.8,0.6,2.8,0.6c1,0,2-0.2,2.7-0.6c0.8-0.4,1.4-1,1.9-1.8c0.5-0.8,0.7-1.7,0.7-2.8V5.6h7.8v18.6
				c0,2.5-0.6,4.7-1.7,6.6c-1.1,1.9-2.6,3.4-4.6,4.5C273.3,36.4,271,37,268.3,37z"/>
			<path d="M295.8,37c-2.6,0-4.8-0.4-6.7-1.2s-3.6-2-5.2-3.7l4.9-5c1.1,1.1,2.2,2,3.4,2.6s2.6,0.9,4.1,0.9c1.3,0,2.3-0.2,3-0.7
				s1.1-1.1,1.1-1.9c0-0.7-0.3-1.3-0.8-1.8c-0.5-0.5-1.2-0.9-2.1-1.3c-0.9-0.4-1.8-0.7-2.8-1c-1-0.3-2.1-0.7-3.1-1.2
				c-1-0.5-2-1.1-2.8-1.8c-0.9-0.7-1.5-1.6-2.1-2.6c-0.5-1-0.8-2.3-0.8-3.9c0-2,0.5-3.7,1.4-5.1s2.3-2.5,3.9-3.2
				c1.7-0.8,3.6-1.1,5.9-1.1c2.2,0,4.3,0.4,6.2,1.1c1.9,0.8,3.4,1.8,4.7,3.1l-5,4.9c-0.9-0.9-1.9-1.6-2.8-2.1c-1-0.5-2-0.7-3.1-0.7
				c-1.1,0-1.9,0.2-2.5,0.6c-0.6,0.4-0.9,0.9-0.9,1.6s0.3,1.3,0.8,1.7c0.5,0.4,1.2,0.8,2.1,1.2s1.8,0.7,2.8,1c1,0.3,2.1,0.8,3.1,1.2
				c1,0.5,2,1.1,2.8,1.8c0.9,0.7,1.5,1.6,2.1,2.7c0.5,1.1,0.8,2.4,0.8,4c0,3.1-1.1,5.5-3.2,7.1C302.7,36.2,299.7,37,295.8,37z"/>
		</g>
		<g class="st1">
			<path d="M17.7,76c-2.4,0-4.5-0.4-6.5-1.2c-2-0.8-3.7-1.9-5.2-3.4c-1.5-1.5-2.7-3.1-3.5-5.1s-1.2-4-1.2-6.3c0-2.3,0.4-4.4,1.3-6.3
				c0.9-1.9,2.1-3.6,3.6-5.1c1.5-1.4,3.3-2.6,5.4-3.4c2-0.8,4.2-1.2,6.6-1.2c2.8,0,5.3,0.5,7.5,1.5c2.2,1,4.1,2.3,5.4,4l-5.2,5.2
				c-1-1.2-2.2-2.2-3.4-2.8C21.1,51.3,19.6,51,18,51c-1.7,0-3.2,0.4-4.5,1.1c-1.3,0.7-2.4,1.8-3.2,3.1c-0.8,1.3-1.2,2.9-1.2,4.7
				c0,1.8,0.4,3.4,1.1,4.8s1.8,2.4,3,3.2c1.3,0.8,2.8,1.1,4.5,1.1c1.7,0,3.1-0.3,4.3-1c1.2-0.6,2.1-1.6,2.7-2.8
				c0.6-1.2,0.9-2.7,0.9-4.4l5.3,3.4L16.9,64v-6.4h16.6v1.2c0,3.7-0.7,6.8-2,9.4c-1.3,2.6-3.2,4.5-5.6,5.8
				C23.6,75.3,20.8,76,17.7,76z"/>
			<path d="M37.2,75.5V44.6H45v30.9H37.2z M43.4,63v-5.6h5.9c1.3,0,2.3-0.3,2.9-0.9c0.7-0.6,1-1.5,1-2.5c0-1-0.3-1.9-1-2.5
				c-0.7-0.7-1.7-1-2.9-1h-5.9v-5.8h7c2.1,0,3.9,0.4,5.5,1.2c1.6,0.8,2.8,1.9,3.7,3.2c0.9,1.4,1.4,3,1.4,4.8s-0.5,3.4-1.4,4.8
				s-2.2,2.5-3.8,3.2c-1.6,0.8-3.5,1.2-5.7,1.2H43.4z M53.9,75.5l-9-13.2l7-1.7l11,14.9H53.9z"/>
			<path d="M62.3,75.5l12-30.9h7.5l11.9,30.9h-8.1l-8.9-26h2.8l-9.2,26H62.3z M69.5,70.1v-6.2h17v6.2H69.5z"/>
			<path d="M96.5,75.5V44.6h5.4l2.4,6.3v24.6H96.5z M117.8,75.5l-18-22.9l2.2-8L120,67.5L117.8,75.5z M117.8,75.5l-2-6.5V44.6h7.8
				v30.9H117.8z"/>
			<path d="M129.1,75.5V44.6h7.8v30.9H129.1z M134.4,75.5v-6.7h7.4c1.7,0,3.3-0.3,4.6-1c1.3-0.7,2.3-1.7,3-3c0.7-1.3,1-2.9,1-4.8
				c0-1.9-0.4-3.4-1.1-4.7c-0.7-1.3-1.7-2.3-3-2.9c-1.3-0.7-2.8-1-4.5-1H134v-6.7h7.8c2.4,0,4.6,0.4,6.6,1.1c2,0.7,3.7,1.8,5.2,3.2
				c1.5,1.4,2.6,3,3.5,4.9c0.8,1.9,1.2,4,1.2,6.3c0,2.3-0.4,4.4-1.2,6.3c-0.8,1.9-2,3.5-3.5,4.9c-1.5,1.4-3.2,2.4-5.2,3.2
				c-2,0.7-4.2,1.1-6.5,1.1H134.4z"/>
			<path d="M162.3,75.5V44.6h7.8v30.9H162.3z M168.5,51.2v-6.6h16.5v6.6H168.5z M168.5,62.9v-6.4h15.2v6.4H168.5z M168.5,75.5v-6.6
				h16.7v6.6H168.5z"/>
			<path d="M194.2,75.5l12-30.9h7.5l11.9,30.9h-8.1l-8.9-26h2.8l-9.2,26H194.2z M201.4,70.1v-6.2h17v6.2H201.4z"/>
			<path d="M234.3,75.5l-11.6-30.9h8.3l8.7,25h-3.6l8.8-25h8.1l-11.8,30.9H234.3z"/>
			<path d="M256.3,75.5V44.6h7.8v30.9H256.3z M262.5,51.2v-6.6H279v6.6H262.5z M262.5,62.9v-6.4h15.2v6.4H262.5z M262.5,75.5v-6.6
				h16.7v6.6H262.5z"/>
			<path d="M283.7,75.5V44.6h5.4l2.4,6.3v24.6H283.7z M305,75.5l-18-22.9l2.2-8l18.1,22.9L305,75.5z M305,75.5l-2-6.5V44.6h7.8v30.9
				H305z"/>
			<path d="M314.3,51.3v-6.7H341v6.7H314.3z M323.8,75.5V44.8h7.8v30.7H323.8z"/>
			<path d="M357.2,76c-2.6,0-4.9-0.5-6.9-1.6c-2-1.1-3.5-2.6-4.6-4.6c-1.1-1.9-1.7-4.2-1.7-6.6V44.6h7.8v19.1c0,1.1,0.2,2.1,0.7,2.9
				c0.5,0.8,1.1,1.4,2,1.8c0.8,0.4,1.8,0.6,2.8,0.6c1,0,2-0.2,2.7-0.6c0.8-0.4,1.4-1,1.9-1.8c0.5-0.8,0.7-1.7,0.7-2.8V44.6h7.8v18.6
				c0,2.5-0.6,4.7-1.7,6.6c-1.1,1.9-2.6,3.4-4.6,4.5C362.1,75.4,359.8,76,357.2,76z"/>
			<path d="M375.3,75.5V44.6h7.8v30.9H375.3z M381.5,63v-5.6h5.9c1.3,0,2.3-0.3,2.9-0.9c0.7-0.6,1-1.5,1-2.5c0-1-0.3-1.9-1-2.5
				s-1.7-1-2.9-1h-5.9v-5.8h7c2.1,0,3.9,0.4,5.5,1.2s2.8,1.9,3.7,3.2c0.9,1.4,1.4,3,1.4,4.8s-0.5,3.4-1.4,4.8s-2.2,2.5-3.8,3.2
				c-1.6,0.8-3.5,1.2-5.7,1.2H381.5z M392,75.5l-9-13.2l7-1.7l11,14.9H392z"/>
			<path d="M403.6,75.5V44.6h7.8v30.9H403.6z M409.8,51.2v-6.6h16.5v6.6H409.8z M409.8,62.9v-6.4h15.2v6.4H409.8z M409.8,75.5v-6.6
				h16.7v6.6H409.8z"/>
		</g>
		<g class="st1">
			<path d="M2.7,114.5V83.6h7.8v30.9H2.7z M8,114.5v-6.7h7.4c1.7,0,3.3-0.3,4.6-1c1.3-0.7,2.3-1.7,3-3c0.7-1.3,1-2.9,1-4.8
				c0-1.9-0.4-3.4-1.1-4.7c-0.7-1.3-1.7-2.3-3-2.9c-1.3-0.7-2.8-1-4.5-1H7.7v-6.7h7.8c2.4,0,4.6,0.4,6.6,1.1c2,0.7,3.7,1.8,5.2,3.2
				c1.5,1.4,2.6,3,3.5,4.9c0.8,1.9,1.2,4,1.2,6.3c0,2.3-0.4,4.4-1.2,6.3c-0.8,1.9-2,3.5-3.5,4.9c-1.5,1.4-3.2,2.4-5.2,3.2
				c-2,0.7-4.2,1.1-6.5,1.1H8z"/>
			<path d="M35.9,114.5V83.6h7.8v30.9H35.9z M42.1,90.1v-6.6h16.5v6.6H42.1z M42.1,101.9v-6.4h15.2v6.4H42.1z M42.1,114.5v-6.6h16.7
				v6.6H42.1z"/>
			<path d="M80.7,114.5L69,83.6h8.3l8.7,25h-3.6l8.8-25h8.1l-11.8,30.9H80.7z"/>
			<path d="M116.7,115c-2.4,0-4.6-0.4-6.6-1.2c-2-0.8-3.8-1.9-5.3-3.4c-1.5-1.5-2.7-3.2-3.5-5.1c-0.8-2-1.3-4.1-1.3-6.3
				c0-2.3,0.4-4.4,1.2-6.3c0.8-1.9,2-3.6,3.5-5.1s3.2-2.6,5.2-3.4s4.2-1.2,6.6-1.2c2.4,0,4.6,0.4,6.6,1.2s3.7,1.9,5.2,3.4
				s2.6,3.2,3.5,5.1c0.8,1.9,1.2,4.1,1.2,6.3s-0.4,4.4-1.2,6.3c-0.8,1.9-2,3.7-3.5,5.1s-3.2,2.6-5.2,3.4
				C121.2,114.6,119,115,116.7,115z M116.6,108c1.7,0,3.3-0.4,4.5-1.1c1.3-0.8,2.3-1.8,3-3.2c0.7-1.4,1-3,1-4.8
				c0-1.3-0.2-2.6-0.6-3.7c-0.4-1.1-1-2.1-1.7-2.9c-0.8-0.8-1.7-1.4-2.7-1.9c-1-0.4-2.2-0.7-3.5-0.7c-1.7,0-3.3,0.4-4.5,1.1
				c-1.3,0.7-2.3,1.8-3,3.2s-1,2.9-1,4.7c0,1.4,0.2,2.7,0.6,3.8s1,2.1,1.7,2.9c0.8,0.8,1.7,1.4,2.7,1.8S115.3,108,116.6,108z"/>
			<path d="M133.7,90.3v-6.7h26.7v6.7H133.7z M143.1,114.5V83.8h7.8v30.7H143.1z"/>
			<path d="M163.9,114.5V83.6h7.8v30.9H163.9z M170.1,101.9v-5.6h5.9c1.3,0,2.3-0.3,2.9-0.9c0.7-0.6,1-1.5,1-2.5c0-1-0.3-1.9-1-2.5
				c-0.7-0.7-1.7-1-2.9-1h-5.9v-5.8h7c2.1,0,3.9,0.4,5.5,1.2c1.6,0.8,2.8,1.9,3.7,3.2c0.9,1.4,1.4,3,1.4,4.8s-0.5,3.4-1.4,4.8
				s-2.2,2.5-3.8,3.2c-1.6,0.8-3.5,1.2-5.7,1.2H170.1z M180.7,114.5l-9-13.2l7-1.7l11,14.9H180.7z"/>
			<path d="M192.2,114.5V83.6h7.8v30.9H192.2z M198.4,90.1v-6.6h16.5v6.6H198.4z M198.4,101.9v-6.4h15.2v6.4H198.4z M198.4,114.5
				v-6.6h16.7v6.6H198.4z"/>
			<path d="M237,114.5l-11.6-30.9h8.3l8.7,25h-3.6l8.8-25h8.1L244,114.5H237z"/>
			<path d="M259,114.5V83.6h7.8v30.9H259z"/>
			<path d="M272.3,114.5V83.6h7.8v30.9H272.3z M278.5,90.1v-6.6H295v6.6H278.5z M278.5,101.9v-6.4h15.2v6.4H278.5z M278.5,114.5
				v-6.6h16.7v6.6H278.5z"/>
		</g>
	</g>
</g>
</svg>
