<?xml version="1.0" encoding="utf-8"?>
<!-- Generator: Adobe Illustrator 25.3.1, SVG Export Plug-In . SVG Version: 6.00 Build 0)  -->
<svg version="1.1" id="Calque_1" xmlns="http://www.w3.org/2000/svg" xmlns:xlink="http://www.w3.org/1999/xlink" x="0px" y="0px"
	 viewBox="0 0 601.5 208.6" style="enable-background:new 0 0 601.5 208.6;" xml:space="preserve">
<style type="text/css">
	.st0{fill:#EF1F1E;}
	.st1{enable-background:new    ;}
</style>
<g id="Calque_2_1_">
	<g id="Calque_1-2">
		<circle class="st0" cx="509.4" cy="116.4" r="92.2"/>
		<g class="st1">
			<path d="M12.2,36.6L0.5,5.6h8.3l8.7,25H14l8.9-25H31l-11.8,31H12.2z"/>
			<path d="M34.3,36.6v-31h7.8v31H34.3z"/>
			<path d="M57,36.6l-11.7-31h8.3l8.7,25h-3.6l8.9-25h8.2l-11.8,31H57z"/>
			<path d="M79.2,36.6v-31H87v31H79.2z M85.4,12.2V5.6h16.5v6.6H85.4z M85.4,24v-6.4h15.2V24H85.4z M85.4,36.6V30h16.8v6.6H85.4z"/>
			<path d="M105.1,31.2L120,11.1h9.4l-14.9,20.1H105.1z M105.1,36.6v-5.4l4.7-1.1h19.4v6.6H105.1z M105.9,12.2V5.6h23.6v5.4
				l-4.7,1.1H105.9z"/>
			<path d="M141.7,36.6v-31h7.8v31H141.7z M147.9,36.6v-6.7h14.9v6.7H147.9z"/>
			<path d="M163.4,36.6l12-31h7.6l11.9,31h-8.2l-9-26.1h2.8l-9.2,26.1H163.4z M170.7,31.2V25h17.1v6.2H170.7z"/>
			<path d="M204.9,36.6v-31h7.8v31H204.9z M211.2,25.5v-5.8h6.1c0.8,0,1.4-0.2,2.1-0.5c0.6-0.3,1.1-0.8,1.5-1.4
				c0.4-0.6,0.6-1.4,0.6-2.3c0-0.9-0.2-1.7-0.6-2.3c-0.4-0.6-0.9-1.1-1.5-1.4c-0.6-0.3-1.3-0.5-2.1-0.5h-6.1V5.6h7.5
				c2,0,3.8,0.4,5.4,1.2c1.6,0.8,2.9,1.9,3.8,3.4s1.4,3.3,1.4,5.4c0,2-0.5,3.8-1.4,5.3c-0.9,1.5-2.2,2.6-3.8,3.4s-3.4,1.2-5.4,1.2
				H211.2z"/>
			<path d="M232.7,36.6v-31h7.8v31H232.7z M238.9,36.6v-6.7h14.9v6.7H238.9z"/>
			<path d="M269.2,37.1c-2.6,0-4.9-0.5-6.9-1.6c-2-1.1-3.5-2.6-4.7-4.6s-1.7-4.2-1.7-6.6V5.6h7.8v19.2c0,1.1,0.2,2.1,0.7,2.9
				c0.5,0.8,1.1,1.4,2,1.8c0.8,0.4,1.8,0.6,2.8,0.6c1,0,2-0.2,2.8-0.6c0.8-0.4,1.4-1,1.9-1.8c0.5-0.8,0.7-1.7,0.7-2.8V5.6h7.9v18.7
				c0,2.5-0.6,4.7-1.7,6.6c-1.1,1.9-2.6,3.5-4.6,4.5C274.1,36.6,271.8,37.1,269.2,37.1z"/>
			<path d="M296.7,37.1c-2.6,0-4.8-0.4-6.8-1.2c-1.9-0.8-3.6-2-5.2-3.7l4.9-5c1.1,1.1,2.2,2,3.5,2.6c1.2,0.6,2.6,0.9,4.2,0.9
				c1.3,0,2.3-0.2,3-0.7c0.7-0.5,1.1-1.1,1.1-1.9c0-0.7-0.3-1.3-0.8-1.8c-0.5-0.5-1.2-0.9-2.1-1.3c-0.9-0.4-1.8-0.7-2.8-1
				c-1-0.3-2.1-0.7-3.1-1.2c-1-0.5-2-1.1-2.8-1.8c-0.9-0.7-1.6-1.6-2.1-2.6c-0.5-1-0.8-2.3-0.8-3.9c0-2,0.5-3.7,1.4-5.1
				c0.9-1.4,2.3-2.5,4-3.2c1.7-0.8,3.7-1.1,5.9-1.1c2.2,0,4.3,0.4,6.2,1.1c1.9,0.8,3.5,1.8,4.7,3.1l-5,4.9c-0.9-0.9-1.9-1.6-2.8-2.1
				c-1-0.5-2-0.7-3.1-0.7c-1.1,0-1.9,0.2-2.5,0.6s-0.9,0.9-0.9,1.6s0.3,1.3,0.8,1.7c0.5,0.4,1.2,0.8,2.1,1.2c0.9,0.3,1.8,0.7,2.8,1
				c1,0.3,2.1,0.8,3.1,1.2c1,0.5,2,1.1,2.8,1.8c0.9,0.7,1.6,1.6,2.1,2.8c0.5,1.1,0.8,2.4,0.8,4c0,3.1-1.1,5.5-3.3,7.2
				C303.6,36.3,300.6,37.1,296.7,37.1z"/>
		</g>
		<g class="st1">
			<path d="M17.7,76.2c-2.4,0-4.5-0.4-6.5-1.2c-2-0.8-3.7-1.9-5.2-3.4c-1.5-1.5-2.7-3.2-3.5-5.1c-0.8-1.9-1.2-4-1.2-6.3
				c0-2.3,0.4-4.4,1.3-6.4c0.9-1.9,2.1-3.6,3.6-5.1c1.5-1.4,3.3-2.6,5.4-3.4c2.1-0.8,4.2-1.2,6.6-1.2c2.8,0,5.3,0.5,7.5,1.5
				c2.2,1,4.1,2.3,5.5,4L25.8,55c-1-1.3-2.2-2.2-3.5-2.8c-1.3-0.6-2.7-0.9-4.4-0.9c-1.7,0-3.2,0.4-4.5,1.1c-1.3,0.7-2.4,1.8-3.2,3.1
				c-0.8,1.3-1.2,2.9-1.2,4.7c0,1.8,0.4,3.4,1.1,4.8c0.7,1.4,1.8,2.4,3.1,3.2c1.3,0.8,2.8,1.1,4.5,1.1c1.7,0,3.1-0.3,4.3-1
				c1.2-0.6,2.1-1.6,2.7-2.8c0.6-1.2,0.9-2.7,0.9-4.4l5.3,3.4l-14.1-0.3v-6.4h16.7V59c0,3.7-0.7,6.8-2,9.4c-1.3,2.6-3.2,4.5-5.6,5.8
				C23.7,75.5,20.9,76.2,17.7,76.2z"/>
			<path d="M37.3,75.7v-31h7.8v31H37.3z M43.5,63.2v-5.6h5.9c1.3,0,2.3-0.3,3-0.9c0.7-0.6,1-1.5,1-2.6c0-1-0.3-1.9-1-2.6
				c-0.7-0.7-1.7-1-3-1h-5.9v-5.8h7c2.1,0,3.9,0.4,5.5,1.2c1.6,0.8,2.8,1.9,3.7,3.2c0.9,1.4,1.4,3,1.4,4.8c0,1.8-0.5,3.4-1.4,4.8
				c-0.9,1.4-2.2,2.5-3.8,3.2c-1.6,0.8-3.5,1.2-5.7,1.2H43.5z M54.1,75.7l-9-13.3l7-1.7l11,15H54.1z"/>
			<path d="M62.5,75.7l12-31H82l11.9,31h-8.2l-9-26.1h2.8l-9.2,26.1H62.5z M69.8,70.3v-6.2h17.1v6.2H69.8z"/>
			<path d="M96.8,75.7v-31h5.5l2.4,6.3v24.7H96.8z M118.2,75.7l-18.1-23l2.2-8l18.1,23L118.2,75.7z M118.2,75.7l-2-6.5V44.7h7.8v31
				H118.2z"/>
			<path d="M129.5,75.7v-31h7.8v31H129.5z M134.8,75.7V69h7.4c1.7,0,3.3-0.3,4.6-1c1.3-0.7,2.3-1.7,3-3s1-2.9,1-4.8
				c0-1.9-0.4-3.4-1.1-4.7c-0.7-1.3-1.7-2.3-3-3s-2.8-1-4.5-1h-7.8v-6.7h7.8c2.4,0,4.6,0.4,6.6,1.1s3.8,1.8,5.2,3.2
				c1.5,1.4,2.6,3,3.5,4.9c0.8,1.9,1.2,4,1.2,6.3c0,2.3-0.4,4.4-1.2,6.3c-0.8,1.9-2,3.5-3.5,4.9c-1.5,1.4-3.2,2.4-5.2,3.2
				c-2,0.7-4.2,1.1-6.5,1.1H134.8z"/>
			<path d="M162.8,75.7v-31h7.8v31H162.8z M169,51.3v-6.6h16.5v6.6H169z M169,63.1v-6.4h15.2v6.4H169z M169,75.7v-6.6h16.8v6.6H169z
				"/>
			<path d="M194.8,75.7l12-31h7.6l11.9,31h-8.2l-9-26.1h2.8l-9.2,26.1H194.8z M202.1,70.3v-6.2h17.1v6.2H202.1z"/>
			<path d="M235,75.7l-11.7-31h8.3l8.7,25h-3.6l8.9-25h8.2l-11.8,31H235z"/>
			<path d="M257.1,75.7v-31h7.8v31H257.1z M263.3,51.3v-6.6h16.5v6.6H263.3z M263.3,63.1v-6.4h15.2v6.4H263.3z M263.3,75.7v-6.6
				h16.8v6.6H263.3z"/>
			<path d="M284.5,75.7v-31h5.5l2.4,6.3v24.7H284.5z M305.9,75.7l-18.1-23l2.2-8l18.1,23L305.9,75.7z M305.9,75.7l-2-6.5V44.7h7.8
				v31H305.9z"/>
			<path d="M315.3,51.5v-6.7h26.8v6.7H315.3z M324.8,75.7V44.9h7.8v30.8H324.8z"/>
			<path d="M358.3,76.2c-2.6,0-4.9-0.5-6.9-1.6c-2-1.1-3.5-2.6-4.7-4.6s-1.7-4.2-1.7-6.6V44.7h7.8v19.2c0,1.1,0.2,2.1,0.7,2.9
				c0.5,0.8,1.1,1.4,2,1.8c0.8,0.4,1.8,0.6,2.8,0.6c1,0,2-0.2,2.8-0.6c0.8-0.4,1.4-1,1.9-1.8c0.5-0.8,0.7-1.7,0.7-2.8V44.7h7.9v18.7
				c0,2.5-0.6,4.7-1.7,6.6c-1.1,1.9-2.6,3.5-4.6,4.5C363.2,75.7,360.9,76.2,358.3,76.2z"/>
			<path d="M376.5,75.7v-31h7.8v31H376.5z M382.7,63.2v-5.6h5.9c1.3,0,2.3-0.3,3-0.9c0.7-0.6,1-1.5,1-2.6c0-1-0.3-1.9-1-2.6
				c-0.7-0.7-1.7-1-3-1h-5.9v-5.8h7c2.1,0,3.9,0.4,5.5,1.2c1.6,0.8,2.8,1.9,3.7,3.2c0.9,1.4,1.4,3,1.4,4.8c0,1.8-0.5,3.4-1.4,4.8
				c-0.9,1.4-2.2,2.5-3.8,3.2c-1.6,0.8-3.5,1.2-5.7,1.2H382.7z M393.2,75.7l-9-13.3l7-1.7l11,15H393.2z"/>
			<path d="M404.8,75.7v-31h7.8v31H404.8z M411,51.3v-6.6h16.5v6.6H411z M411,63.1v-6.4h15.2v6.4H411z M411,75.7v-6.6h16.8v6.6H411z
				"/>
		</g>
		<g class="st1">
			<path d="M2.8,114.8v-31h7.8v31H2.8z M8,114.8v-6.7h7.4c1.7,0,3.3-0.3,4.6-1c1.3-0.7,2.3-1.7,3-3c0.7-1.3,1-2.9,1-4.8
				c0-1.9-0.4-3.4-1.1-4.7c-0.7-1.3-1.7-2.3-3-3s-2.8-1-4.5-1H7.7v-6.7h7.8c2.4,0,4.6,0.4,6.6,1.1s3.8,1.8,5.2,3.2
				c1.5,1.4,2.6,3,3.5,4.9c0.8,1.9,1.2,4,1.2,6.3c0,2.3-0.4,4.4-1.2,6.3c-0.8,1.9-2,3.5-3.5,4.9c-1.5,1.4-3.2,2.4-5.2,3.2
				c-2,0.7-4.2,1.1-6.5,1.1H8z"/>
			<path d="M36,114.8v-31h7.8v31H36z M42.2,90.4v-6.6h16.5v6.6H42.2z M42.2,102.2v-6.4h15.2v6.4H42.2z M42.2,114.8v-6.6H59v6.6H42.2
				z"/>
			<path d="M80.9,114.8l-11.7-31h8.3l8.7,25h-3.6l8.9-25h8.2l-11.8,31H80.9z"/>
			<path d="M117.1,115.4c-2.4,0-4.6-0.4-6.6-1.2c-2-0.8-3.8-2-5.3-3.4c-1.5-1.5-2.7-3.2-3.5-5.1c-0.8-2-1.3-4.1-1.3-6.4
				c0-2.3,0.4-4.4,1.2-6.3s2-3.6,3.5-5.1c1.5-1.5,3.2-2.6,5.2-3.4c2-0.8,4.2-1.2,6.6-1.2c2.4,0,4.6,0.4,6.6,1.2
				c2,0.8,3.8,1.9,5.2,3.4c1.5,1.5,2.6,3.2,3.5,5.1s1.2,4.1,1.2,6.3c0,2.3-0.4,4.4-1.2,6.3c-0.8,2-2,3.7-3.5,5.1
				c-1.5,1.5-3.2,2.6-5.2,3.4C121.6,115,119.4,115.4,117.1,115.4z M117,108.4c1.7,0,3.3-0.4,4.5-1.1c1.3-0.8,2.3-1.8,3-3.2
				c0.7-1.4,1-3,1-4.8c0-1.3-0.2-2.6-0.6-3.7c-0.4-1.1-1-2.1-1.7-2.9c-0.8-0.8-1.7-1.4-2.7-1.9c-1-0.4-2.2-0.7-3.5-0.7
				c-1.7,0-3.3,0.4-4.5,1.1c-1.3,0.7-2.3,1.8-3,3.2c-0.7,1.4-1,3-1,4.8c0,1.4,0.2,2.7,0.6,3.8c0.4,1.1,1,2.1,1.7,2.9
				c0.8,0.8,1.7,1.4,2.7,1.8C114.5,108.2,115.7,108.4,117,108.4z"/>
			<path d="M134.1,90.5v-6.7h26.8v6.7H134.1z M143.6,114.8V84h7.8v30.8H143.6z"/>
			<path d="M164.4,114.8v-31h7.8v31H164.4z M170.6,102.3v-5.6h5.9c1.3,0,2.3-0.3,3-0.9c0.7-0.6,1-1.5,1-2.6c0-1-0.3-1.9-1-2.6
				c-0.7-0.7-1.7-1-3-1h-5.9v-5.8h7c2.1,0,3.9,0.4,5.5,1.2c1.6,0.8,2.8,1.9,3.7,3.2c0.9,1.4,1.4,3,1.4,4.8c0,1.8-0.5,3.4-1.4,4.8
				c-0.9,1.4-2.2,2.5-3.8,3.2c-1.6,0.8-3.5,1.2-5.7,1.2H170.6z M181.2,114.8l-9-13.3l7-1.7l11,15H181.2z"/>
			<path d="M192.8,114.8v-31h7.8v31H192.8z M199,90.4v-6.6h16.5v6.6H199z M199,102.2v-6.4h15.2v6.4H199z M199,114.8v-6.6h16.8v6.6
				H199z"/>
			<path d="M237.7,114.8l-11.7-31h8.3l8.7,25h-3.6l8.9-25h8.2l-11.8,31H237.7z"/>
			<path d="M259.8,114.8v-31h7.8v31H259.8z"/>
			<path d="M273.2,114.8v-31h7.8v31H273.2z M279.4,90.4v-6.6h16.5v6.6H279.4z M279.4,102.2v-6.4h15.2v6.4H279.4z M279.4,114.8v-6.6
				h16.8v6.6H279.4z"/>
		</g>
	</g>
</g>
</svg>
