<?xml version="1.0" encoding="utf-8"?>
<!-- Generator: Adobe Illustrator 25.3.1, SVG Export Plug-In . SVG Version: 6.00 Build 0)  -->
<svg version="1.1" id="Calque_1" xmlns="http://www.w3.org/2000/svg" xmlns:xlink="http://www.w3.org/1999/xlink" x="0px" y="0px"
	 viewBox="0 0 982 220" style="enable-background:new 0 0 982 220;" xml:space="preserve">
<style type="text/css">
	.st0{fill:#F02216;}
</style>
<g>
	<g id="LOGO_PEKINEXPRESS_DZ.psd_5_">
		
			<image style="overflow:visible;" width="1920" height="1080" id="LOGO_PEKINEXPRESS_DZ_2_" xlink:href="ACA1D39F34AB6BAD.png"  transform="matrix(0.3758 0 0 0.3758 364.2599 -71)">
		</image>
	</g>
	<g>
		<g>
			<path class="st0" d="M433.3,88.9c0,5.6-4.6,10.2-10.2,10.2c-5.6,0-10.2-4.6-10.2-10.2c0-5.6,4.6-10.2,10.2-10.2
				C428.7,78.7,433.3,83.2,433.3,88.9z M417.3,121.3c0,15.6-12.7,28.3-28.3,28.3c-15.6,0-28.3-12.7-28.3-28.3
				c0,15.6-12.7,28.3-28.3,28.3c-15.6,0-28.3-12.7-28.3-28.3c0,15.6-12.7,28.3-28.3,28.3c-7.9,0-15.6-3.4-21-9.3
				c-3.5-3.9-5.9-8.5-6.8-13.5l-42.2,0l0.7,1.7c2.2,4.2,6.1,7.1,10.8,8c1.3,0.2,2.7,0.4,4.2,0.4l0.7,0c3-0.1,5.9-0.9,8.3-2.3
				l1.3-0.9c1-0.7,1.9-0.7,2.9-0.2l7.5,4.2c0.7,0.4,1.2,1.1,1.2,1.8c0.1,0.7-0.2,1.5-0.7,2l-2,1.8c-0.1,0.1-0.2,0.1-0.2,0.1l-0.1,0
				c-4.8,3.9-11,6-18.3,6.2c-0.3,0-0.6,0-1,0c-0.9,0-1.7,0-2.6-0.1l-1.6-0.1c-14.5-1.6-25.3-13.8-25.2-28.4c0-3.5,0.7-6.9,2-10l0,0
				l-0.2-0.2c-3.3-3.9-8.3-5.8-13.4-5.3c-8,0.8-13.6,7-13.6,15.1l-0.3,25.7c0,1.8-1.5,3.2-3.2,3.2h-6.2c-1.7,0-3.2-1.4-3.2-3.2
				l0-24.5c-0.3,15.4-12.9,27.8-28.3,27.8c-15.6,0-28.3-12.7-28.3-28.3c0,15.6-12.7,28.3-28.3,28.3c-15.6,0-28.3-12.7-28.3-28.3
				c0-15.6,12.7-28.3,28.3-28.3C84.3,93,97,105.7,97,121.3c0-15.6,12.7-28.3,28.3-28.3c15.4,0,28,12.4,28.3,27.8l0-23.8
				c0-1.8,1.5-3.2,3.2-3.2h6.2c1.7,0,3.2,1.4,3.2,3.2v1.5c4-3.2,8.4-5,13-5.4c8.2-0.7,16,2.1,21.5,7.8c4.8-4.6,11.2-7.5,18.2-7.8
				c7.8-0.3,15.1,2.5,20.7,7.9c4.2,4.1,7,9.2,8.1,14.8c0,0,0,0,0,0c1.7-8.6,7.4-16,15.3-19.8c8.9-4.2,19-3.8,27.3,1.3l0.7,0.5
				l0-21.1c0-2,1.6-3.7,3.7-3.7h5.5c2,0,3.7,1.6,3.7,3.7v0l-0.1,44.7c0-15.6,12.7-28.2,28.3-28.2c15.6,0,28.3,12.7,28.3,28.3
				c0-15.6,12.7-28.3,28.3-28.3C404.6,93,417.3,105.7,417.3,121.3z M84.2,121.3c0-8.6-7-15.5-15.5-15.5c-8.6,0-15.5,7-15.5,15.5
				c0,8.6,7,15.5,15.5,15.5C77.3,136.8,84.2,129.9,84.2,121.3z M140.9,121.3c0-8.6-7-15.5-15.5-15.5c-8.6,0-15.5,7-15.5,15.5
				c0,8.6,7,15.5,15.5,15.5C133.9,136.8,140.9,129.9,140.9,121.3z M234.4,115.3c-2.4-5.8-7.9-9.5-14.3-9.5c-6.3,0-11.9,3.7-14.3,9.5
				L234.4,115.3z M291.2,121.3c0-4.2-1.6-8.1-4.6-11c-2.9-2.9-6.8-4.5-10.9-4.5c-0.1,0-0.2,0-0.2,0c-8.2,0.1-15.2,7.1-15.3,15.3
				c-0.1,4.2,1.5,8.1,4.5,11.1c2.9,3,6.9,4.6,11,4.6C284.2,136.8,291.2,129.9,291.2,121.3z M347.8,121.3c0-8.6-7-15.5-15.5-15.5
				c-8.6,0-15.5,7-15.5,15.5c0,8.6,7,15.5,15.5,15.5C340.8,136.8,347.8,129.9,347.8,121.3z M404.5,121.3c0-8.6-7-15.5-15.5-15.5
				c-8.6,0-15.5,7-15.5,15.5c0,8.6,7,15.5,15.5,15.5C397.5,136.8,404.5,129.9,404.5,121.3z"/>
		</g>
	</g>
	<g>
		<rect x="483" y="81.2" width="5.1" height="71"/>
	</g>
</g>
</svg>
