<?xml version="1.0" encoding="utf-8"?>
<!-- Generator: Adobe Illustrator 25.3.1, SVG Export Plug-In . SVG Version: 6.00 Build 0)  -->
<svg version="1.1" id="Calque_1" xmlns="http://www.w3.org/2000/svg" xmlns:xlink="http://www.w3.org/1999/xlink" x="0px" y="0px"
	 viewBox="0 0 300 62" style="enable-background:new 0 0 300 62;" xml:space="preserve">
<style type="text/css">
	.st0{fill:#EF1F1E;}
</style>
<g>
	<g>
		<path class="st0" d="M149.4,18.5c0,2-1.7,3.7-3.7,3.7c-2,0-3.7-1.7-3.7-3.7c0-2,1.7-3.7,3.7-3.7C147.7,14.8,149.4,16.5,149.4,18.5
			z M143.6,30.3c0,5.7-4.6,10.3-10.3,10.3c-5.7,0-10.3-4.6-10.3-10.3c0,5.7-4.6,10.3-10.3,10.3c-5.7,0-10.3-4.6-10.3-10.3
			c0,5.7-4.6,10.3-10.3,10.3c-2.9,0-5.7-1.2-7.6-3.4c-1.3-1.4-2.1-3.1-2.5-4.9l-15.3,0l0.3,0.6c0.8,1.5,2.2,2.6,3.9,2.9
			c0.5,0.1,1,0.1,1.5,0.1l0.3,0c1.1,0,2.1-0.3,3-0.8l0.5-0.3c0.4-0.2,0.7-0.3,1.1-0.1l2.7,1.5c0.3,0.1,0.4,0.4,0.5,0.7
			c0,0.3-0.1,0.5-0.3,0.7l-0.7,0.7c0,0-0.1,0-0.1,0.1l0,0c-1.7,1.4-4,2.2-6.6,2.2c-0.1,0-0.2,0-0.4,0c-0.3,0-0.6,0-0.9,0l-0.6,0
			c-5.3-0.6-9.2-5-9.2-10.3c0-1.3,0.3-2.5,0.7-3.6l0,0l-0.1-0.1c-1.2-1.4-3-2.1-4.9-1.9c-2.9,0.3-5,2.6-5,5.5l-0.1,9.3
			c0,0.6-0.5,1.2-1.2,1.2h-2.3c-0.6,0-1.2-0.5-1.2-1.2l0-8.9c-0.1,5.6-4.7,10.1-10.3,10.1C31.7,40.7,27,36,27,30.4
			c0,5.7-4.6,10.3-10.3,10.3C11,40.7,6.4,36,6.4,30.3C6.4,24.7,11,20,16.7,20C22.4,20,27,24.7,27,30.3C27,24.7,31.7,20,37.3,20
			c5.6,0,10.2,4.5,10.3,10.1l0-8.7c0-0.7,0.5-1.2,1.2-1.2h2.3c0.6,0,1.2,0.5,1.2,1.2V22c1.4-1.1,3.1-1.8,4.7-2
			c3-0.3,5.8,0.8,7.8,2.8c1.8-1.7,4.1-2.7,6.6-2.8c2.8-0.1,5.5,0.9,7.5,2.9c1.5,1.5,2.6,3.3,3,5.4c0,0,0,0,0,0
			c0.6-3.1,2.7-5.8,5.6-7.2c3.2-1.5,6.9-1.4,9.9,0.5l0.3,0.2l0-7.7c0-0.7,0.6-1.3,1.3-1.3h2c0.7,0,1.3,0.6,1.3,1.3v0l0,16.3
			c0-5.7,4.6-10.3,10.3-10.3c5.7,0,10.3,4.6,10.3,10.3c0-5.7,4.6-10.3,10.3-10.3C138.9,20,143.6,24.7,143.6,30.3z M22.4,30.3
			c0-3.1-2.5-5.6-5.6-5.6c-3.1,0-5.7,2.5-5.7,5.6c0,3.1,2.5,5.6,5.7,5.6C19.8,36,22.4,33.5,22.4,30.3z M43,30.3
			c0-3.1-2.5-5.6-5.6-5.6c-3.1,0-5.6,2.5-5.6,5.6c0,3.1,2.5,5.6,5.6,5.6C40.5,36,43,33.5,43,30.3z M77,28.2
			c-0.9-2.1-2.9-3.5-5.2-3.5c-2.3,0-4.3,1.4-5.2,3.5L77,28.2z M97.7,30.3c0-1.5-0.6-2.9-1.7-4c-1.1-1.1-2.5-1.6-4-1.6
			c0,0-0.1,0-0.1,0c-3,0-5.5,2.6-5.6,5.6c0,1.5,0.6,3,1.6,4.1c1.1,1.1,2.5,1.7,4,1.7C95.1,36,97.7,33.5,97.7,30.3z M118.3,30.3
			c0-3.1-2.5-5.6-5.6-5.6c-3.1,0-5.6,2.5-5.6,5.6c0,3.1,2.5,5.6,5.6,5.6C115.7,36,118.3,33.5,118.3,30.3z M138.9,30.3
			c0-3.1-2.5-5.6-5.6-5.6c-3.1,0-5.6,2.5-5.6,5.6c0,3.1,2.5,5.6,5.6,5.6C136.4,36,138.9,33.5,138.9,30.3z"/>
	</g>
</g>
<g>
	<rect x="167.5" y="15.7" width="1.8" height="25.8"/>
</g>
<g>
	<path d="M294.3,23.2c0,1.8-1.4,3.2-3.2,3.2c-1.8,0-3.2-1.4-3.2-3.2c0-1.8,1.4-3.2,3.2-3.2C292.9,20.1,294.3,21.5,294.3,23.2z"/>
	<path d="M214.7,33.1c0-0.7-0.2-1.3-0.5-1.8c-0.4-0.5-0.8-1-1.4-1.3c-0.6-0.4-1.2-0.7-2-1c-0.7-0.3-1.5-0.6-2.3-0.9
		c-0.9-0.3-2.1-0.7-3.5-1.3c-1.4-0.6-2.5-1.3-3.4-2.2c-0.9-0.9-1.5-2.1-1.7-3.5c-0.1-1.2,0-2.3,0.5-3.4c0.5-1.1,1.2-2,2.1-2.8
		c0.9-0.8,1.9-1.5,3.2-1.9c1.2-0.5,2.5-0.7,3.8-0.7c1.7,0,3.1,0.3,4.3,0.9c1.2,0.6,2.1,1.4,2.9,2.2c0.8,0.9,1.3,1.8,1.7,2.7
		c0.4,1,0.5,1.8,0.6,2.4h-4.8c-0.3-1.2-0.8-2.1-1.5-2.8c-0.7-0.7-1.8-1-3.1-1.1c-0.8,0-1.5,0.1-2.1,0.3c-0.6,0.2-1.2,0.5-1.6,0.9
		c-0.4,0.4-0.7,0.8-0.9,1.3c-0.2,0.5-0.2,1-0.1,1.5c0.1,0.4,0.3,0.7,0.6,1c0.3,0.3,0.7,0.6,1.2,0.8c0.5,0.2,1,0.5,1.6,0.7
		c0.6,0.2,1.2,0.4,1.9,0.6c1.1,0.4,2.2,0.8,3.3,1.2c1.1,0.4,2.1,1,3,1.7c0.9,0.7,1.6,1.5,2.2,2.6c0.6,1,0.8,2.3,0.8,3.9
		c0,1.3-0.3,2.5-0.8,3.6c-0.5,1.1-1.3,1.9-2.2,2.6c-0.9,0.7-2,1.3-3.2,1.6c-1.2,0.4-2.4,0.6-3.7,0.6c-1.3,0-2.6-0.2-3.8-0.7
		c-1.3-0.5-2.4-1.2-3.3-2.1c-1-0.9-1.8-2-2.3-3.4c-0.6-1.3-0.8-2.8-0.8-4.5h4.7c0,0.8,0.1,1.6,0.4,2.3c0.2,0.8,0.6,1.4,1.1,2
		c0.5,0.6,1.1,1,1.7,1.3c0.7,0.3,1.5,0.5,2.3,0.5c1.6,0,2.8-0.3,3.8-1C214.3,35.3,214.7,34.3,214.7,33.1z"/>
	<path d="M220.8,25.5V21h1.8v-7.1h4.6V21h4.6v4.6h-4.6v15.2h-4.6V25.5H220.8z"/>
	<path d="M234,30.8c0-1.5,0.3-2.9,0.8-4.2c0.6-1.3,1.3-2.4,2.3-3.4c1-1,2.1-1.7,3.4-2.3c1.3-0.6,2.7-0.8,4.2-0.8
		c1.5,0,2.9,0.3,4.2,0.8c1.3,0.6,2.4,1.3,3.4,2.3c1,1,1.7,2.1,2.3,3.4c0.6,1.3,0.8,2.7,0.8,4.2v9.9H251v-1.1
		c-1.8,1.3-3.9,1.9-6.2,1.9c-1.6,0-3.1-0.3-4.4-0.8c-1.3-0.6-2.5-1.3-3.4-2.3c-0.9-1-1.7-2.1-2.2-3.4C234.3,33.7,234,32.3,234,30.8z
		 M238.6,30.8c0,0.8,0.2,1.6,0.5,2.4c0.3,0.8,0.8,1.4,1.3,2c0.6,0.6,1.2,1,2,1.3c0.8,0.3,1.6,0.5,2.4,0.5c0.8,0,1.6-0.2,2.4-0.5
		c0.8-0.3,1.4-0.7,2-1.3c0.6-0.6,1-1.2,1.3-2s0.5-1.6,0.5-2.5c0-0.8-0.2-1.6-0.5-2.4c-0.3-0.8-0.8-1.4-1.3-2c-0.6-0.6-1.2-1-2-1.3
		c-0.8-0.3-1.6-0.5-2.4-0.5c-0.8,0-1.6,0.2-2.4,0.5c-0.8,0.3-1.4,0.8-2,1.3c-0.6,0.6-1,1.2-1.3,2C238.8,29.2,238.6,29.9,238.6,30.8z
		"/>
	<path d="M258.4,21h4.6v2c0.9-0.7,2-1.2,3.2-1.5c1.2-0.4,2.5-0.5,4-0.5v4.6c-1,0-1.9,0.2-2.8,0.5c-0.9,0.3-1.6,0.8-2.3,1.3
		c-0.7,0.6-1.2,1.2-1.6,2c-0.4,0.8-0.6,1.5-0.6,2.4v9h-4.6V21z"/>
	<path d="M272.3,25.5V21h1.8v-7.1h4.6V21h4.6v4.6h-4.6v15.2h-4.6V25.5H272.3z"/>
	<path class="st0" d="M186.9,35.8V25.5h-1.8V21h1.8v-7.1h4.6V21h4.6v4.6h-4.6V34c0,0-0.2,2.2,2.1,2.2l0,4.6h-2.9
		C190.7,40.7,186.9,40.7,186.9,35.8z"/>
	<g>
		<g>
			<g>
				<path d="M201.6,48.5c-1.7,0-2.5-0.9-2.5-2.6v-0.3l0.1-0.1h0.6l0.1,0.1V46c0,1.2,0.6,1.8,1.7,1.8h2.5c0.5,0,0.8-0.2,0.8-1.1v-1
					l0.1-0.1h0.6l0.1,0.1V47c0,1.3-0.7,1.6-1.3,1.6H201.6z M202.6,45.7L202.6,45.7l-0.1-0.8l0.1-0.1h0.6l0.1,0.1v0.7l-0.1,0.1H202.6
					z M201.5,45.7L201.5,45.7l-0.1-0.8l0.1-0.1h0.6l0.1,0.1v0.7l-0.1,0.1H201.5z"/>
			</g>
			<g>
				<path d="M206.3,49.9v-0.6l0.1-0.1c0.8,0,1.1-0.4,1.1-1.4v-2.2l0.1-0.1h0.6l0.1,0.1v2.1C208.3,49.2,207.7,49.9,206.3,49.9
					L206.3,49.9z"/>
			</g>
			<g>
				<path d="M210.5,48.5c-0.3,0-0.6-0.1-0.8-0.3c-0.3-0.3-0.4-0.6-0.4-1.1V44l0.1-0.1h0.6l0.1,0.1v2.7c0,0.4,0.1,0.6,0.2,0.8
					c0.1,0.1,0.2,0.2,0.4,0.2c0.1,0,0.1,0,0.4,0c0,0,0.1,0,0.2,0l0.1,0.1v0.6l-0.1,0.1H210.5z"/>
			</g>
			<g>
				<path d="M211.1,48.5L211.1,48.5l-0.1-0.7l0.1-0.1h0.5c0.3,0,0.5-0.1,0.6-0.3c0.1-0.1,0.1-0.4,0.1-0.8v-1l0.1-0.1h0.6l0.1,0.1V47
					c0,0.3,0,0.6-0.1,0.8h50.3l0.1,0.1v0.6l-0.1,0.1H211.1z M212.4,45.1L212.4,45.1l-0.1-0.8l0.1-0.1h0.6l0.1,0.1v0.7l-0.1,0.1
					H212.4z M211.3,45.1L211.3,45.1l-0.1-0.8l0.1-0.1h0.6l0.1,0.1v0.7l-0.1,0.1H211.3z"/>
			</g>
			<g>
				<path d="M213.8,48.5L213.8,48.5l-0.1-0.7l0.1-0.1h50.1c0.5,0,0.8-0.3,0.8-1l0-1.1l0.1-0.1h0.6l0.1,0.1V47c0,0.3,0,0.6-0.1,0.8h1
					c0.4,0,0.6-0.2,0.6-1.1v-1l0.1-0.1h0.6l0.1,0.1V47c0,0.3,0,0.6-0.1,0.8h0.9c0.5,0,0.8-0.2,0.8-1.1v-1l0.1-0.1h0.6l0.1,0.1V47
					c0,1.1-0.5,1.6-1.3,1.6H213.8z"/>
			</g>
			<g>
				<path class="st0" d="M275.3,48.5c-1.5,0-2.3-0.9-2.3-2.6v-0.3l0.1-0.1h0.5l0.1,0.1V46c0,1.2,0.5,1.8,1.5,1.8h2.2
					c0.5,0,0.7-0.2,0.7-1.1v-1l0.1-0.1h0.5l0.1,0.1V47c0,1.3-0.6,1.6-1.2,1.6H275.3z M276.2,45.7L276.2,45.7l-0.1-0.8l0.1-0.1h0.5
					l0.1,0.1v0.7l-0.1,0.1H276.2z M275.2,45.7L275.2,45.7l-0.1-0.8l0.1-0.1h0.5l0.1,0.1v0.7l-0.1,0.1H275.2z"/>
			</g>
		</g>
	</g>
</g>
</svg>
